<mxfile host="app.diagrams.net" agent="Mozilla/5.0 (Windows NT 10.0; Win64; x64) AppleWebKit/537.36 (KHTML, like Gecko) Chrome/132.0.0.0 YaBrowser/25.2.0.0 Safari/537.36" version="25.0.3" pages="2">
  <diagram name="Страница — 1" id="jldHqCPHl5C7Gvd-iOLV">
    <mxGraphModel dx="3310" dy="756" grid="1" gridSize="10" guides="1" tooltips="1" connect="1" arrows="1" fold="1" page="1" pageScale="1" pageWidth="827" pageHeight="1169" math="0" shadow="0">
      <root>
        <mxCell id="0" />
        <mxCell id="1" parent="0" />
        <mxCell id="cc7sxFCVyo9TV1B_5zIe-1" value="App" style="swimlane;fontStyle=1;align=center;verticalAlign=top;childLayout=stackLayout;horizontal=1;startSize=26;horizontalStack=0;resizeParent=1;resizeParentMax=0;resizeLast=0;collapsible=1;marginBottom=0;whiteSpace=wrap;html=1;" parent="1" vertex="1">
          <mxGeometry x="827" y="90" width="310" height="190" as="geometry" />
        </mxCell>
        <mxCell id="cc7sxFCVyo9TV1B_5zIe-2" value="-&amp;nbsp;&amp;nbsp;model: ICanvasReadMode" style="text;strokeColor=none;fillColor=none;align=left;verticalAlign=top;spacingLeft=4;spacingRight=4;overflow=hidden;rotatable=0;points=[[0,0.5],[1,0.5]];portConstraint=eastwest;whiteSpace=wrap;html=1;" parent="cc7sxFCVyo9TV1B_5zIe-1" vertex="1">
          <mxGeometry y="26" width="310" height="26" as="geometry" />
        </mxCell>
        <mxCell id="cc7sxFCVyo9TV1B_5zIe-3" value="-&amp;nbsp;&lt;span style=&quot;background-color: transparent;&quot;&gt;canvasController: CanvasController&lt;/span&gt;" style="text;strokeColor=none;fillColor=none;align=left;verticalAlign=top;spacingLeft=4;spacingRight=4;overflow=hidden;rotatable=0;points=[[0,0.5],[1,0.5]];portConstraint=eastwest;whiteSpace=wrap;html=1;" parent="cc7sxFCVyo9TV1B_5zIe-1" vertex="1">
          <mxGeometry y="52" width="310" height="26" as="geometry" />
        </mxCell>
        <mxCell id="cc7sxFCVyo9TV1B_5zIe-70" value="-&amp;nbsp;shapeController: ShapeContoller" style="text;strokeColor=none;fillColor=none;align=left;verticalAlign=top;spacingLeft=4;spacingRight=4;overflow=hidden;rotatable=0;points=[[0,0.5],[1,0.5]];portConstraint=eastwest;whiteSpace=wrap;html=1;" parent="cc7sxFCVyo9TV1B_5zIe-1" vertex="1">
          <mxGeometry y="78" width="310" height="26" as="geometry" />
        </mxCell>
        <mxCell id="cc7sxFCVyo9TV1B_5zIe-4" value="" style="line;strokeWidth=1;fillColor=none;align=left;verticalAlign=middle;spacingTop=-1;spacingLeft=3;spacingRight=3;rotatable=0;labelPosition=right;points=[];portConstraint=eastwest;strokeColor=inherit;" parent="cc7sxFCVyo9TV1B_5zIe-1" vertex="1">
          <mxGeometry y="104" width="310" height="8" as="geometry" />
        </mxCell>
        <mxCell id="cc7sxFCVyo9TV1B_5zIe-5" value="+handleSelectShape(shapeId?: string) : : void" style="text;strokeColor=none;fillColor=none;align=left;verticalAlign=top;spacingLeft=4;spacingRight=4;overflow=hidden;rotatable=0;points=[[0,0.5],[1,0.5]];portConstraint=eastwest;whiteSpace=wrap;html=1;" parent="cc7sxFCVyo9TV1B_5zIe-1" vertex="1">
          <mxGeometry y="112" width="310" height="26" as="geometry" />
        </mxCell>
        <mxCell id="cc7sxFCVyo9TV1B_5zIe-6" value="+handleDeleteShape(shapeId: string) : : void" style="text;strokeColor=none;fillColor=none;align=left;verticalAlign=top;spacingLeft=4;spacingRight=4;overflow=hidden;rotatable=0;points=[[0,0.5],[1,0.5]];portConstraint=eastwest;whiteSpace=wrap;html=1;" parent="cc7sxFCVyo9TV1B_5zIe-1" vertex="1">
          <mxGeometry y="138" width="310" height="26" as="geometry" />
        </mxCell>
        <mxCell id="cc7sxFCVyo9TV1B_5zIe-7" value="+render() : : ReactElement" style="text;strokeColor=none;fillColor=none;align=left;verticalAlign=top;spacingLeft=4;spacingRight=4;overflow=hidden;rotatable=0;points=[[0,0.5],[1,0.5]];portConstraint=eastwest;whiteSpace=wrap;html=1;" parent="cc7sxFCVyo9TV1B_5zIe-1" vertex="1">
          <mxGeometry y="164" width="310" height="26" as="geometry" />
        </mxCell>
        <mxCell id="cc7sxFCVyo9TV1B_5zIe-71" value="Canvas" style="swimlane;fontStyle=1;align=center;verticalAlign=top;childLayout=stackLayout;horizontal=1;startSize=26;horizontalStack=0;resizeParent=1;resizeParentMax=0;resizeLast=0;collapsible=1;marginBottom=0;whiteSpace=wrap;html=1;" parent="1" vertex="1">
          <mxGeometry x="1250" y="330" width="310" height="190" as="geometry" />
        </mxCell>
        <mxCell id="cc7sxFCVyo9TV1B_5zIe-72" value="-&amp;nbsp;&amp;nbsp;model: ICanvasReadMode" style="text;strokeColor=none;fillColor=none;align=left;verticalAlign=top;spacingLeft=4;spacingRight=4;overflow=hidden;rotatable=0;points=[[0,0.5],[1,0.5]];portConstraint=eastwest;whiteSpace=wrap;html=1;" parent="cc7sxFCVyo9TV1B_5zIe-71" vertex="1">
          <mxGeometry y="26" width="310" height="26" as="geometry" />
        </mxCell>
        <mxCell id="cc7sxFCVyo9TV1B_5zIe-73" value="-&amp;nbsp;&lt;span style=&quot;background-color: transparent;&quot;&gt;canvasController: CanvasController&lt;/span&gt;" style="text;strokeColor=none;fillColor=none;align=left;verticalAlign=top;spacingLeft=4;spacingRight=4;overflow=hidden;rotatable=0;points=[[0,0.5],[1,0.5]];portConstraint=eastwest;whiteSpace=wrap;html=1;" parent="cc7sxFCVyo9TV1B_5zIe-71" vertex="1">
          <mxGeometry y="52" width="310" height="26" as="geometry" />
        </mxCell>
        <mxCell id="cc7sxFCVyo9TV1B_5zIe-74" value="-&amp;nbsp;shapeController: ShapeContoller" style="text;strokeColor=none;fillColor=none;align=left;verticalAlign=top;spacingLeft=4;spacingRight=4;overflow=hidden;rotatable=0;points=[[0,0.5],[1,0.5]];portConstraint=eastwest;whiteSpace=wrap;html=1;" parent="cc7sxFCVyo9TV1B_5zIe-71" vertex="1">
          <mxGeometry y="78" width="310" height="26" as="geometry" />
        </mxCell>
        <mxCell id="cc7sxFCVyo9TV1B_5zIe-75" value="" style="line;strokeWidth=1;fillColor=none;align=left;verticalAlign=middle;spacingTop=-1;spacingLeft=3;spacingRight=3;rotatable=0;labelPosition=right;points=[];portConstraint=eastwest;strokeColor=inherit;" parent="cc7sxFCVyo9TV1B_5zIe-71" vertex="1">
          <mxGeometry y="104" width="310" height="8" as="geometry" />
        </mxCell>
        <mxCell id="cc7sxFCVyo9TV1B_5zIe-76" value="+renderShapes() : : ReactElement[]" style="text;strokeColor=none;fillColor=none;align=left;verticalAlign=top;spacingLeft=4;spacingRight=4;overflow=hidden;rotatable=0;points=[[0,0.5],[1,0.5]];portConstraint=eastwest;whiteSpace=wrap;html=1;" parent="cc7sxFCVyo9TV1B_5zIe-71" vertex="1">
          <mxGeometry y="112" width="310" height="26" as="geometry" />
        </mxCell>
        <mxCell id="cc7sxFCVyo9TV1B_5zIe-77" value="+handleKeyDown(event: KeyboardEvent) : : void" style="text;strokeColor=none;fillColor=none;align=left;verticalAlign=top;spacingLeft=4;spacingRight=4;overflow=hidden;rotatable=0;points=[[0,0.5],[1,0.5]];portConstraint=eastwest;whiteSpace=wrap;html=1;" parent="cc7sxFCVyo9TV1B_5zIe-71" vertex="1">
          <mxGeometry y="138" width="310" height="26" as="geometry" />
        </mxCell>
        <mxCell id="cc7sxFCVyo9TV1B_5zIe-78" value="+render() : : ReactElement" style="text;strokeColor=none;fillColor=none;align=left;verticalAlign=top;spacingLeft=4;spacingRight=4;overflow=hidden;rotatable=0;points=[[0,0.5],[1,0.5]];portConstraint=eastwest;whiteSpace=wrap;html=1;" parent="cc7sxFCVyo9TV1B_5zIe-71" vertex="1">
          <mxGeometry y="164" width="310" height="26" as="geometry" />
        </mxCell>
        <mxCell id="cc7sxFCVyo9TV1B_5zIe-79" value="Toolbar" style="swimlane;fontStyle=1;align=center;verticalAlign=top;childLayout=stackLayout;horizontal=1;startSize=26;horizontalStack=0;resizeParent=1;resizeParentMax=0;resizeLast=0;collapsible=1;marginBottom=0;whiteSpace=wrap;html=1;" parent="1" vertex="1">
          <mxGeometry x="300" y="630" width="310" height="86" as="geometry" />
        </mxCell>
        <mxCell id="cc7sxFCVyo9TV1B_5zIe-80" value="- canvasController: CanvasController" style="text;strokeColor=none;fillColor=none;align=left;verticalAlign=top;spacingLeft=4;spacingRight=4;overflow=hidden;rotatable=0;points=[[0,0.5],[1,0.5]];portConstraint=eastwest;whiteSpace=wrap;html=1;" parent="cc7sxFCVyo9TV1B_5zIe-79" vertex="1">
          <mxGeometry y="26" width="310" height="26" as="geometry" />
        </mxCell>
        <mxCell id="cc7sxFCVyo9TV1B_5zIe-83" value="" style="line;strokeWidth=1;fillColor=none;align=left;verticalAlign=middle;spacingTop=-1;spacingLeft=3;spacingRight=3;rotatable=0;labelPosition=right;points=[];portConstraint=eastwest;strokeColor=inherit;" parent="cc7sxFCVyo9TV1B_5zIe-79" vertex="1">
          <mxGeometry y="52" width="310" height="8" as="geometry" />
        </mxCell>
        <mxCell id="cc7sxFCVyo9TV1B_5zIe-84" value="&lt;div&gt;+render() : : ReactElement&lt;/div&gt;" style="text;strokeColor=none;fillColor=none;align=left;verticalAlign=top;spacingLeft=4;spacingRight=4;overflow=hidden;rotatable=0;points=[[0,0.5],[1,0.5]];portConstraint=eastwest;whiteSpace=wrap;html=1;" parent="cc7sxFCVyo9TV1B_5zIe-79" vertex="1">
          <mxGeometry y="60" width="310" height="26" as="geometry" />
        </mxCell>
        <mxCell id="cc7sxFCVyo9TV1B_5zIe-87" value="EllipseShape" style="swimlane;fontStyle=1;align=center;verticalAlign=top;childLayout=stackLayout;horizontal=1;startSize=26;horizontalStack=0;resizeParent=1;resizeParentMax=0;resizeLast=0;collapsible=1;marginBottom=0;whiteSpace=wrap;html=1;" parent="1" vertex="1">
          <mxGeometry x="730" y="630" width="310" height="60" as="geometry" />
        </mxCell>
        <mxCell id="cc7sxFCVyo9TV1B_5zIe-89" value="" style="line;strokeWidth=1;fillColor=none;align=left;verticalAlign=middle;spacingTop=-1;spacingLeft=3;spacingRight=3;rotatable=0;labelPosition=right;points=[];portConstraint=eastwest;strokeColor=inherit;" parent="cc7sxFCVyo9TV1B_5zIe-87" vertex="1">
          <mxGeometry y="26" width="310" height="8" as="geometry" />
        </mxCell>
        <mxCell id="cc7sxFCVyo9TV1B_5zIe-90" value="&lt;div&gt;+render() : : ReactElement&lt;/div&gt;" style="text;strokeColor=none;fillColor=none;align=left;verticalAlign=top;spacingLeft=4;spacingRight=4;overflow=hidden;rotatable=0;points=[[0,0.5],[1,0.5]];portConstraint=eastwest;whiteSpace=wrap;html=1;" parent="cc7sxFCVyo9TV1B_5zIe-87" vertex="1">
          <mxGeometry y="34" width="310" height="26" as="geometry" />
        </mxCell>
        <mxCell id="cc7sxFCVyo9TV1B_5zIe-91" value="RectangleShape" style="swimlane;fontStyle=1;align=center;verticalAlign=top;childLayout=stackLayout;horizontal=1;startSize=26;horizontalStack=0;resizeParent=1;resizeParentMax=0;resizeLast=0;collapsible=1;marginBottom=0;whiteSpace=wrap;html=1;" parent="1" vertex="1">
          <mxGeometry x="1400" y="630" width="310" height="60" as="geometry" />
        </mxCell>
        <mxCell id="cc7sxFCVyo9TV1B_5zIe-92" value="" style="line;strokeWidth=1;fillColor=none;align=left;verticalAlign=middle;spacingTop=-1;spacingLeft=3;spacingRight=3;rotatable=0;labelPosition=right;points=[];portConstraint=eastwest;strokeColor=inherit;" parent="cc7sxFCVyo9TV1B_5zIe-91" vertex="1">
          <mxGeometry y="26" width="310" height="8" as="geometry" />
        </mxCell>
        <mxCell id="cc7sxFCVyo9TV1B_5zIe-93" value="&lt;div&gt;+render() : : ReactElement&lt;/div&gt;" style="text;strokeColor=none;fillColor=none;align=left;verticalAlign=top;spacingLeft=4;spacingRight=4;overflow=hidden;rotatable=0;points=[[0,0.5],[1,0.5]];portConstraint=eastwest;whiteSpace=wrap;html=1;" parent="cc7sxFCVyo9TV1B_5zIe-91" vertex="1">
          <mxGeometry y="34" width="310" height="26" as="geometry" />
        </mxCell>
        <mxCell id="cc7sxFCVyo9TV1B_5zIe-94" value="TriangleShape" style="swimlane;fontStyle=1;align=center;verticalAlign=top;childLayout=stackLayout;horizontal=1;startSize=26;horizontalStack=0;resizeParent=1;resizeParentMax=0;resizeLast=0;collapsible=1;marginBottom=0;whiteSpace=wrap;html=1;" parent="1" vertex="1">
          <mxGeometry x="1070" y="630" width="310" height="60" as="geometry" />
        </mxCell>
        <mxCell id="cc7sxFCVyo9TV1B_5zIe-95" value="" style="line;strokeWidth=1;fillColor=none;align=left;verticalAlign=middle;spacingTop=-1;spacingLeft=3;spacingRight=3;rotatable=0;labelPosition=right;points=[];portConstraint=eastwest;strokeColor=inherit;" parent="cc7sxFCVyo9TV1B_5zIe-94" vertex="1">
          <mxGeometry y="26" width="310" height="8" as="geometry" />
        </mxCell>
        <mxCell id="cc7sxFCVyo9TV1B_5zIe-96" value="&lt;div&gt;+render() : : ReactElement&lt;/div&gt;" style="text;strokeColor=none;fillColor=none;align=left;verticalAlign=top;spacingLeft=4;spacingRight=4;overflow=hidden;rotatable=0;points=[[0,0.5],[1,0.5]];portConstraint=eastwest;whiteSpace=wrap;html=1;" parent="cc7sxFCVyo9TV1B_5zIe-94" vertex="1">
          <mxGeometry y="34" width="310" height="26" as="geometry" />
        </mxCell>
        <mxCell id="cc7sxFCVyo9TV1B_5zIe-97" value="ImageShapeComponent" style="swimlane;fontStyle=1;align=center;verticalAlign=top;childLayout=stackLayout;horizontal=1;startSize=26;horizontalStack=0;resizeParent=1;resizeParentMax=0;resizeLast=0;collapsible=1;marginBottom=0;whiteSpace=wrap;html=1;" parent="1" vertex="1">
          <mxGeometry x="1750" y="630" width="310" height="60" as="geometry" />
        </mxCell>
        <mxCell id="cc7sxFCVyo9TV1B_5zIe-98" value="" style="line;strokeWidth=1;fillColor=none;align=left;verticalAlign=middle;spacingTop=-1;spacingLeft=3;spacingRight=3;rotatable=0;labelPosition=right;points=[];portConstraint=eastwest;strokeColor=inherit;" parent="cc7sxFCVyo9TV1B_5zIe-97" vertex="1">
          <mxGeometry y="26" width="310" height="8" as="geometry" />
        </mxCell>
        <mxCell id="cc7sxFCVyo9TV1B_5zIe-99" value="&lt;div&gt;+render() : : ReactElement&lt;/div&gt;" style="text;strokeColor=none;fillColor=none;align=left;verticalAlign=top;spacingLeft=4;spacingRight=4;overflow=hidden;rotatable=0;points=[[0,0.5],[1,0.5]];portConstraint=eastwest;whiteSpace=wrap;html=1;" parent="cc7sxFCVyo9TV1B_5zIe-97" vertex="1">
          <mxGeometry y="34" width="310" height="26" as="geometry" />
        </mxCell>
        <mxCell id="cc7sxFCVyo9TV1B_5zIe-100" value="Use" style="endArrow=open;endSize=12;dashed=1;html=1;rounded=0;entryX=0.5;entryY=0;entryDx=0;entryDy=0;" parent="1" source="cc7sxFCVyo9TV1B_5zIe-78" target="cc7sxFCVyo9TV1B_5zIe-94" edge="1">
          <mxGeometry width="160" relative="1" as="geometry">
            <mxPoint x="970" y="530" as="sourcePoint" />
            <mxPoint x="1380" y="500" as="targetPoint" />
          </mxGeometry>
        </mxCell>
        <mxCell id="cc7sxFCVyo9TV1B_5zIe-101" value="Use" style="endArrow=open;endSize=12;dashed=1;html=1;rounded=0;entryX=0.5;entryY=0;entryDx=0;entryDy=0;exitX=0.481;exitY=1.06;exitDx=0;exitDy=0;exitPerimeter=0;" parent="1" source="cc7sxFCVyo9TV1B_5zIe-78" target="cc7sxFCVyo9TV1B_5zIe-91" edge="1">
          <mxGeometry width="160" relative="1" as="geometry">
            <mxPoint x="1396" y="530" as="sourcePoint" />
            <mxPoint x="1235" y="640" as="targetPoint" />
          </mxGeometry>
        </mxCell>
        <mxCell id="cc7sxFCVyo9TV1B_5zIe-102" value="Use" style="endArrow=open;endSize=12;dashed=1;html=1;rounded=0;entryX=0.5;entryY=0;entryDx=0;entryDy=0;exitX=0.046;exitY=0.923;exitDx=0;exitDy=0;exitPerimeter=0;" parent="1" source="cc7sxFCVyo9TV1B_5zIe-78" target="cc7sxFCVyo9TV1B_5zIe-87" edge="1">
          <mxGeometry width="160" relative="1" as="geometry">
            <mxPoint x="970" y="477" as="sourcePoint" />
            <mxPoint x="1126" y="585" as="targetPoint" />
          </mxGeometry>
        </mxCell>
        <mxCell id="cc7sxFCVyo9TV1B_5zIe-103" value="Use" style="endArrow=open;endSize=12;dashed=1;html=1;rounded=0;entryX=0.5;entryY=0;entryDx=0;entryDy=0;exitX=1;exitY=0.5;exitDx=0;exitDy=0;" parent="1" source="cc7sxFCVyo9TV1B_5zIe-78" target="cc7sxFCVyo9TV1B_5zIe-97" edge="1">
          <mxGeometry width="160" relative="1" as="geometry">
            <mxPoint x="1919" y="450" as="sourcePoint" />
            <mxPoint x="1540" y="562" as="targetPoint" />
          </mxGeometry>
        </mxCell>
        <mxCell id="cc7sxFCVyo9TV1B_5zIe-104" value="Use" style="endArrow=open;endSize=12;dashed=1;html=1;rounded=0;entryX=0;entryY=0.5;entryDx=0;entryDy=0;exitX=1;exitY=0.5;exitDx=0;exitDy=0;" parent="1" source="cc7sxFCVyo9TV1B_5zIe-5" target="cc7sxFCVyo9TV1B_5zIe-74" edge="1">
          <mxGeometry width="160" relative="1" as="geometry">
            <mxPoint x="1274" y="528" as="sourcePoint" />
            <mxPoint x="895" y="640" as="targetPoint" />
          </mxGeometry>
        </mxCell>
        <mxCell id="cc7sxFCVyo9TV1B_5zIe-105" value="InteractiveShape" style="swimlane;fontStyle=1;align=center;verticalAlign=top;childLayout=stackLayout;horizontal=1;startSize=26;horizontalStack=0;resizeParent=1;resizeParentMax=0;resizeLast=0;collapsible=1;marginBottom=0;whiteSpace=wrap;html=1;" parent="1" vertex="1">
          <mxGeometry x="1320" y="780" width="310" height="216" as="geometry" />
        </mxCell>
        <mxCell id="cc7sxFCVyo9TV1B_5zIe-106" value="- isDragging: boolean" style="text;strokeColor=none;fillColor=none;align=left;verticalAlign=top;spacingLeft=4;spacingRight=4;overflow=hidden;rotatable=0;points=[[0,0.5],[1,0.5]];portConstraint=eastwest;whiteSpace=wrap;html=1;" parent="cc7sxFCVyo9TV1B_5zIe-105" vertex="1">
          <mxGeometry y="26" width="310" height="26" as="geometry" />
        </mxCell>
        <mxCell id="cc7sxFCVyo9TV1B_5zIe-107" value="- isResizing: boolean" style="text;strokeColor=none;fillColor=none;align=left;verticalAlign=top;spacingLeft=4;spacingRight=4;overflow=hidden;rotatable=0;points=[[0,0.5],[1,0.5]];portConstraint=eastwest;whiteSpace=wrap;html=1;" parent="cc7sxFCVyo9TV1B_5zIe-105" vertex="1">
          <mxGeometry y="52" width="310" height="26" as="geometry" />
        </mxCell>
        <mxCell id="cc7sxFCVyo9TV1B_5zIe-108" value="- shapeController: ShapeContoller" style="text;strokeColor=none;fillColor=none;align=left;verticalAlign=top;spacingLeft=4;spacingRight=4;overflow=hidden;rotatable=0;points=[[0,0.5],[1,0.5]];portConstraint=eastwest;whiteSpace=wrap;html=1;" parent="cc7sxFCVyo9TV1B_5zIe-105" vertex="1">
          <mxGeometry y="78" width="310" height="26" as="geometry" />
        </mxCell>
        <mxCell id="cc7sxFCVyo9TV1B_5zIe-109" value="" style="line;strokeWidth=1;fillColor=none;align=left;verticalAlign=middle;spacingTop=-1;spacingLeft=3;spacingRight=3;rotatable=0;labelPosition=right;points=[];portConstraint=eastwest;strokeColor=inherit;" parent="cc7sxFCVyo9TV1B_5zIe-105" vertex="1">
          <mxGeometry y="104" width="310" height="8" as="geometry" />
        </mxCell>
        <mxCell id="cc7sxFCVyo9TV1B_5zIe-110" value="+handleMouseDown(e: React.MouseEvent) : : void" style="text;strokeColor=none;fillColor=none;align=left;verticalAlign=top;spacingLeft=4;spacingRight=4;overflow=hidden;rotatable=0;points=[[0,0.5],[1,0.5]];portConstraint=eastwest;whiteSpace=wrap;html=1;" parent="cc7sxFCVyo9TV1B_5zIe-105" vertex="1">
          <mxGeometry y="112" width="310" height="26" as="geometry" />
        </mxCell>
        <mxCell id="cc7sxFCVyo9TV1B_5zIe-111" value="+handleMouseMove(e: MouseEvent) : : void" style="text;strokeColor=none;fillColor=none;align=left;verticalAlign=top;spacingLeft=4;spacingRight=4;overflow=hidden;rotatable=0;points=[[0,0.5],[1,0.5]];portConstraint=eastwest;whiteSpace=wrap;html=1;" parent="cc7sxFCVyo9TV1B_5zIe-105" vertex="1">
          <mxGeometry y="138" width="310" height="26" as="geometry" />
        </mxCell>
        <mxCell id="cc7sxFCVyo9TV1B_5zIe-113" value="+handleMouseUp() : : void" style="text;strokeColor=none;fillColor=none;align=left;verticalAlign=top;spacingLeft=4;spacingRight=4;overflow=hidden;rotatable=0;points=[[0,0.5],[1,0.5]];portConstraint=eastwest;whiteSpace=wrap;html=1;" parent="cc7sxFCVyo9TV1B_5zIe-105" vertex="1">
          <mxGeometry y="164" width="310" height="26" as="geometry" />
        </mxCell>
        <mxCell id="cc7sxFCVyo9TV1B_5zIe-112" value="+render() : : ReactElement" style="text;strokeColor=none;fillColor=none;align=left;verticalAlign=top;spacingLeft=4;spacingRight=4;overflow=hidden;rotatable=0;points=[[0,0.5],[1,0.5]];portConstraint=eastwest;whiteSpace=wrap;html=1;" parent="cc7sxFCVyo9TV1B_5zIe-105" vertex="1">
          <mxGeometry y="190" width="310" height="26" as="geometry" />
        </mxCell>
        <mxCell id="cc7sxFCVyo9TV1B_5zIe-114" value="ShapeController" style="swimlane;fontStyle=1;align=center;verticalAlign=top;childLayout=stackLayout;horizontal=1;startSize=26;horizontalStack=0;resizeParent=1;resizeParentMax=0;resizeLast=0;collapsible=1;marginBottom=0;whiteSpace=wrap;html=1;" parent="1" vertex="1">
          <mxGeometry x="1510" y="1140" width="490" height="138" as="geometry" />
        </mxCell>
        <mxCell id="cc7sxFCVyo9TV1B_5zIe-115" value="- model: CanvasModel" style="text;strokeColor=none;fillColor=none;align=left;verticalAlign=top;spacingLeft=4;spacingRight=4;overflow=hidden;rotatable=0;points=[[0,0.5],[1,0.5]];portConstraint=eastwest;whiteSpace=wrap;html=1;" parent="cc7sxFCVyo9TV1B_5zIe-114" vertex="1">
          <mxGeometry y="26" width="490" height="26" as="geometry" />
        </mxCell>
        <mxCell id="cc7sxFCVyo9TV1B_5zIe-118" value="" style="line;strokeWidth=1;fillColor=none;align=left;verticalAlign=middle;spacingTop=-1;spacingLeft=3;spacingRight=3;rotatable=0;labelPosition=right;points=[];portConstraint=eastwest;strokeColor=inherit;" parent="cc7sxFCVyo9TV1B_5zIe-114" vertex="1">
          <mxGeometry y="52" width="490" height="8" as="geometry" />
        </mxCell>
        <mxCell id="cc7sxFCVyo9TV1B_5zIe-119" value="+updateShapeSizeAndPosition(shapeId: string, changes) : : void" style="text;strokeColor=none;fillColor=none;align=left;verticalAlign=top;spacingLeft=4;spacingRight=4;overflow=hidden;rotatable=0;points=[[0,0.5],[1,0.5]];portConstraint=eastwest;whiteSpace=wrap;html=1;" parent="cc7sxFCVyo9TV1B_5zIe-114" vertex="1">
          <mxGeometry y="60" width="490" height="26" as="geometry" />
        </mxCell>
        <mxCell id="cc7sxFCVyo9TV1B_5zIe-120" value="+handleMove(shapeId, initialPosition, deltaX, deltaY) : : void" style="text;strokeColor=none;fillColor=none;align=left;verticalAlign=top;spacingLeft=4;spacingRight=4;overflow=hidden;rotatable=0;points=[[0,0.5],[1,0.5]];portConstraint=eastwest;whiteSpace=wrap;html=1;" parent="cc7sxFCVyo9TV1B_5zIe-114" vertex="1">
          <mxGeometry y="86" width="490" height="26" as="geometry" />
        </mxCell>
        <mxCell id="cc7sxFCVyo9TV1B_5zIe-121" value="+handleResize(shapeId: string, initial, delta: ShapePosition, resizeCorner: string) : : void" style="text;strokeColor=none;fillColor=none;align=left;verticalAlign=top;spacingLeft=4;spacingRight=4;overflow=hidden;rotatable=0;points=[[0,0.5],[1,0.5]];portConstraint=eastwest;whiteSpace=wrap;html=1;" parent="cc7sxFCVyo9TV1B_5zIe-114" vertex="1">
          <mxGeometry y="112" width="490" height="26" as="geometry" />
        </mxCell>
        <mxCell id="cc7sxFCVyo9TV1B_5zIe-123" value="CanvasController" style="swimlane;fontStyle=1;align=center;verticalAlign=top;childLayout=stackLayout;horizontal=1;startSize=26;horizontalStack=0;resizeParent=1;resizeParentMax=0;resizeLast=0;collapsible=1;marginBottom=0;whiteSpace=wrap;html=1;" parent="1" vertex="1">
          <mxGeometry x="390" y="930" width="410" height="320" as="geometry" />
        </mxCell>
        <mxCell id="cc7sxFCVyo9TV1B_5zIe-124" value="- model: CanvasModel" style="text;strokeColor=none;fillColor=none;align=left;verticalAlign=top;spacingLeft=4;spacingRight=4;overflow=hidden;rotatable=0;points=[[0,0.5],[1,0.5]];portConstraint=eastwest;whiteSpace=wrap;html=1;" parent="cc7sxFCVyo9TV1B_5zIe-123" vertex="1">
          <mxGeometry y="26" width="410" height="26" as="geometry" />
        </mxCell>
        <mxCell id="cc7sxFCVyo9TV1B_5zIe-127" value="" style="line;strokeWidth=1;fillColor=none;align=left;verticalAlign=middle;spacingTop=-1;spacingLeft=3;spacingRight=3;rotatable=0;labelPosition=right;points=[];portConstraint=eastwest;strokeColor=inherit;" parent="cc7sxFCVyo9TV1B_5zIe-123" vertex="1">
          <mxGeometry y="52" width="410" height="8" as="geometry" />
        </mxCell>
        <mxCell id="cc7sxFCVyo9TV1B_5zIe-128" value="+addArtObject(type: ArtObjectType)" style="text;strokeColor=none;fillColor=none;align=left;verticalAlign=top;spacingLeft=4;spacingRight=4;overflow=hidden;rotatable=0;points=[[0,0.5],[1,0.5]];portConstraint=eastwest;whiteSpace=wrap;html=1;" parent="cc7sxFCVyo9TV1B_5zIe-123" vertex="1">
          <mxGeometry y="60" width="410" height="26" as="geometry" />
        </mxCell>
        <mxCell id="cc7sxFCVyo9TV1B_5zIe-129" value="+addImage(data: string)" style="text;strokeColor=none;fillColor=none;align=left;verticalAlign=top;spacingLeft=4;spacingRight=4;overflow=hidden;rotatable=0;points=[[0,0.5],[1,0.5]];portConstraint=eastwest;whiteSpace=wrap;html=1;" parent="cc7sxFCVyo9TV1B_5zIe-123" vertex="1">
          <mxGeometry y="86" width="410" height="26" as="geometry" />
        </mxCell>
        <mxCell id="cc7sxFCVyo9TV1B_5zIe-130" value="+removeShape(shapeId: string)" style="text;strokeColor=none;fillColor=none;align=left;verticalAlign=top;spacingLeft=4;spacingRight=4;overflow=hidden;rotatable=0;points=[[0,0.5],[1,0.5]];portConstraint=eastwest;whiteSpace=wrap;html=1;" parent="cc7sxFCVyo9TV1B_5zIe-123" vertex="1">
          <mxGeometry y="112" width="410" height="26" as="geometry" />
        </mxCell>
        <mxCell id="cc7sxFCVyo9TV1B_5zIe-131" value="+undo()" style="text;strokeColor=none;fillColor=none;align=left;verticalAlign=top;spacingLeft=4;spacingRight=4;overflow=hidden;rotatable=0;points=[[0,0.5],[1,0.5]];portConstraint=eastwest;whiteSpace=wrap;html=1;" parent="cc7sxFCVyo9TV1B_5zIe-123" vertex="1">
          <mxGeometry y="138" width="410" height="26" as="geometry" />
        </mxCell>
        <mxCell id="cc7sxFCVyo9TV1B_5zIe-135" value="+redo()" style="text;strokeColor=none;fillColor=none;align=left;verticalAlign=top;spacingLeft=4;spacingRight=4;overflow=hidden;rotatable=0;points=[[0,0.5],[1,0.5]];portConstraint=eastwest;whiteSpace=wrap;html=1;" parent="cc7sxFCVyo9TV1B_5zIe-123" vertex="1">
          <mxGeometry y="164" width="410" height="26" as="geometry" />
        </mxCell>
        <mxCell id="cc7sxFCVyo9TV1B_5zIe-134" value="+canUndo() : : boolean" style="text;strokeColor=none;fillColor=none;align=left;verticalAlign=top;spacingLeft=4;spacingRight=4;overflow=hidden;rotatable=0;points=[[0,0.5],[1,0.5]];portConstraint=eastwest;whiteSpace=wrap;html=1;" parent="cc7sxFCVyo9TV1B_5zIe-123" vertex="1">
          <mxGeometry y="190" width="410" height="26" as="geometry" />
        </mxCell>
        <mxCell id="cc7sxFCVyo9TV1B_5zIe-133" value="+canRedo() : : boolean" style="text;strokeColor=none;fillColor=none;align=left;verticalAlign=top;spacingLeft=4;spacingRight=4;overflow=hidden;rotatable=0;points=[[0,0.5],[1,0.5]];portConstraint=eastwest;whiteSpace=wrap;html=1;" parent="cc7sxFCVyo9TV1B_5zIe-123" vertex="1">
          <mxGeometry y="216" width="410" height="26" as="geometry" />
        </mxCell>
        <mxCell id="cc7sxFCVyo9TV1B_5zIe-136" value="+loadCanvasFromJson(jsonString: string)" style="text;strokeColor=none;fillColor=none;align=left;verticalAlign=top;spacingLeft=4;spacingRight=4;overflow=hidden;rotatable=0;points=[[0,0.5],[1,0.5]];portConstraint=eastwest;whiteSpace=wrap;html=1;" parent="cc7sxFCVyo9TV1B_5zIe-123" vertex="1">
          <mxGeometry y="242" width="410" height="26" as="geometry" />
        </mxCell>
        <mxCell id="cc7sxFCVyo9TV1B_5zIe-137" value="+addObserver(observer: ShapeChangeObserver) : : void" style="text;strokeColor=none;fillColor=none;align=left;verticalAlign=top;spacingLeft=4;spacingRight=4;overflow=hidden;rotatable=0;points=[[0,0.5],[1,0.5]];portConstraint=eastwest;whiteSpace=wrap;html=1;" parent="cc7sxFCVyo9TV1B_5zIe-123" vertex="1">
          <mxGeometry y="268" width="410" height="26" as="geometry" />
        </mxCell>
        <mxCell id="cc7sxFCVyo9TV1B_5zIe-132" value="+removeObserver(observer: ShapeChangeObserver) : : void" style="text;strokeColor=none;fillColor=none;align=left;verticalAlign=top;spacingLeft=4;spacingRight=4;overflow=hidden;rotatable=0;points=[[0,0.5],[1,0.5]];portConstraint=eastwest;whiteSpace=wrap;html=1;" parent="cc7sxFCVyo9TV1B_5zIe-123" vertex="1">
          <mxGeometry y="294" width="410" height="26" as="geometry" />
        </mxCell>
        <mxCell id="cc7sxFCVyo9TV1B_5zIe-138" value="CanvasModel" style="swimlane;fontStyle=1;align=center;verticalAlign=top;childLayout=stackLayout;horizontal=1;startSize=26;horizontalStack=0;resizeParent=1;resizeParentMax=0;resizeLast=0;collapsible=1;marginBottom=0;whiteSpace=wrap;html=1;" parent="1" vertex="1">
          <mxGeometry x="880" y="1440" width="490" height="528" as="geometry" />
        </mxCell>
        <mxCell id="cc7sxFCVyo9TV1B_5zIe-144" value="- canvasSize: ShapeSize" style="text;strokeColor=none;fillColor=none;align=left;verticalAlign=top;spacingLeft=4;spacingRight=4;overflow=hidden;rotatable=0;points=[[0,0.5],[1,0.5]];portConstraint=eastwest;whiteSpace=wrap;html=1;" parent="cc7sxFCVyo9TV1B_5zIe-138" vertex="1">
          <mxGeometry y="26" width="490" height="26" as="geometry" />
        </mxCell>
        <mxCell id="cc7sxFCVyo9TV1B_5zIe-145" value="- shapes: Map" style="text;strokeColor=none;fillColor=none;align=left;verticalAlign=top;spacingLeft=4;spacingRight=4;overflow=hidden;rotatable=0;points=[[0,0.5],[1,0.5]];portConstraint=eastwest;whiteSpace=wrap;html=1;" parent="cc7sxFCVyo9TV1B_5zIe-138" vertex="1">
          <mxGeometry y="52" width="490" height="26" as="geometry" />
        </mxCell>
        <mxCell id="cc7sxFCVyo9TV1B_5zIe-146" value="- history: History" style="text;strokeColor=none;fillColor=none;align=left;verticalAlign=top;spacingLeft=4;spacingRight=4;overflow=hidden;rotatable=0;points=[[0,0.5],[1,0.5]];portConstraint=eastwest;whiteSpace=wrap;html=1;" parent="cc7sxFCVyo9TV1B_5zIe-138" vertex="1">
          <mxGeometry y="78" width="490" height="26" as="geometry" />
        </mxCell>
        <mxCell id="cc7sxFCVyo9TV1B_5zIe-139" value="- shapeChangeObservers: ShapeChangeObserver[]" style="text;strokeColor=none;fillColor=none;align=left;verticalAlign=top;spacingLeft=4;spacingRight=4;overflow=hidden;rotatable=0;points=[[0,0.5],[1,0.5]];portConstraint=eastwest;whiteSpace=wrap;html=1;" parent="cc7sxFCVyo9TV1B_5zIe-138" vertex="1">
          <mxGeometry y="104" width="490" height="26" as="geometry" />
        </mxCell>
        <mxCell id="cc7sxFCVyo9TV1B_5zIe-140" value="" style="line;strokeWidth=1;fillColor=none;align=left;verticalAlign=middle;spacingTop=-1;spacingLeft=3;spacingRight=3;rotatable=0;labelPosition=right;points=[];portConstraint=eastwest;strokeColor=inherit;" parent="cc7sxFCVyo9TV1B_5zIe-138" vertex="1">
          <mxGeometry y="130" width="490" height="8" as="geometry" />
        </mxCell>
        <mxCell id="cc7sxFCVyo9TV1B_5zIe-141" value="+addArtObject(type: ArtObjectType)" style="text;strokeColor=none;fillColor=none;align=left;verticalAlign=top;spacingLeft=4;spacingRight=4;overflow=hidden;rotatable=0;points=[[0,0.5],[1,0.5]];portConstraint=eastwest;whiteSpace=wrap;html=1;" parent="cc7sxFCVyo9TV1B_5zIe-138" vertex="1">
          <mxGeometry y="138" width="490" height="26" as="geometry" />
        </mxCell>
        <mxCell id="cc7sxFCVyo9TV1B_5zIe-142" value="+addImage(data: string)" style="text;strokeColor=none;fillColor=none;align=left;verticalAlign=top;spacingLeft=4;spacingRight=4;overflow=hidden;rotatable=0;points=[[0,0.5],[1,0.5]];portConstraint=eastwest;whiteSpace=wrap;html=1;" parent="cc7sxFCVyo9TV1B_5zIe-138" vertex="1">
          <mxGeometry y="164" width="490" height="26" as="geometry" />
        </mxCell>
        <mxCell id="cc7sxFCVyo9TV1B_5zIe-147" value="+removeShape(shapeId: string)" style="text;strokeColor=none;fillColor=none;align=left;verticalAlign=top;spacingLeft=4;spacingRight=4;overflow=hidden;rotatable=0;points=[[0,0.5],[1,0.5]];portConstraint=eastwest;whiteSpace=wrap;html=1;" parent="cc7sxFCVyo9TV1B_5zIe-138" vertex="1">
          <mxGeometry y="190" width="490" height="26" as="geometry" />
        </mxCell>
        <mxCell id="cc7sxFCVyo9TV1B_5zIe-148" value="+undo()" style="text;strokeColor=none;fillColor=none;align=left;verticalAlign=top;spacingLeft=4;spacingRight=4;overflow=hidden;rotatable=0;points=[[0,0.5],[1,0.5]];portConstraint=eastwest;whiteSpace=wrap;html=1;" parent="cc7sxFCVyo9TV1B_5zIe-138" vertex="1">
          <mxGeometry y="216" width="490" height="26" as="geometry" />
        </mxCell>
        <mxCell id="cc7sxFCVyo9TV1B_5zIe-149" value="+redo()" style="text;strokeColor=none;fillColor=none;align=left;verticalAlign=top;spacingLeft=4;spacingRight=4;overflow=hidden;rotatable=0;points=[[0,0.5],[1,0.5]];portConstraint=eastwest;whiteSpace=wrap;html=1;" parent="cc7sxFCVyo9TV1B_5zIe-138" vertex="1">
          <mxGeometry y="242" width="490" height="26" as="geometry" />
        </mxCell>
        <mxCell id="cc7sxFCVyo9TV1B_5zIe-143" value="+canUndo()" style="text;strokeColor=none;fillColor=none;align=left;verticalAlign=top;spacingLeft=4;spacingRight=4;overflow=hidden;rotatable=0;points=[[0,0.5],[1,0.5]];portConstraint=eastwest;whiteSpace=wrap;html=1;" parent="cc7sxFCVyo9TV1B_5zIe-138" vertex="1">
          <mxGeometry y="268" width="490" height="26" as="geometry" />
        </mxCell>
        <mxCell id="cc7sxFCVyo9TV1B_5zIe-151" value="+canRedo()" style="text;strokeColor=none;fillColor=none;align=left;verticalAlign=top;spacingLeft=4;spacingRight=4;overflow=hidden;rotatable=0;points=[[0,0.5],[1,0.5]];portConstraint=eastwest;whiteSpace=wrap;html=1;" parent="cc7sxFCVyo9TV1B_5zIe-138" vertex="1">
          <mxGeometry y="294" width="490" height="26" as="geometry" />
        </mxCell>
        <mxCell id="cc7sxFCVyo9TV1B_5zIe-152" value="+loadCanvasFromJson(jsonString: string)" style="text;strokeColor=none;fillColor=none;align=left;verticalAlign=top;spacingLeft=4;spacingRight=4;overflow=hidden;rotatable=0;points=[[0,0.5],[1,0.5]];portConstraint=eastwest;whiteSpace=wrap;html=1;" parent="cc7sxFCVyo9TV1B_5zIe-138" vertex="1">
          <mxGeometry y="320" width="490" height="26" as="geometry" />
        </mxCell>
        <mxCell id="cc7sxFCVyo9TV1B_5zIe-153" value="+addObserver(onShapeChange: ShapeChangeObserver)" style="text;strokeColor=none;fillColor=none;align=left;verticalAlign=top;spacingLeft=4;spacingRight=4;overflow=hidden;rotatable=0;points=[[0,0.5],[1,0.5]];portConstraint=eastwest;whiteSpace=wrap;html=1;" parent="cc7sxFCVyo9TV1B_5zIe-138" vertex="1">
          <mxGeometry y="346" width="490" height="26" as="geometry" />
        </mxCell>
        <mxCell id="cc7sxFCVyo9TV1B_5zIe-154" value="+removeObserver(onShapeChange: ShapeChangeObserver)" style="text;strokeColor=none;fillColor=none;align=left;verticalAlign=top;spacingLeft=4;spacingRight=4;overflow=hidden;rotatable=0;points=[[0,0.5],[1,0.5]];portConstraint=eastwest;whiteSpace=wrap;html=1;" parent="cc7sxFCVyo9TV1B_5zIe-138" vertex="1">
          <mxGeometry y="372" width="490" height="26" as="geometry" />
        </mxCell>
        <mxCell id="cc7sxFCVyo9TV1B_5zIe-155" value="+updateShapeSizeAndPosition(shapeId: string, changes)" style="text;strokeColor=none;fillColor=none;align=left;verticalAlign=top;spacingLeft=4;spacingRight=4;overflow=hidden;rotatable=0;points=[[0,0.5],[1,0.5]];portConstraint=eastwest;whiteSpace=wrap;html=1;" parent="cc7sxFCVyo9TV1B_5zIe-138" vertex="1">
          <mxGeometry y="398" width="490" height="26" as="geometry" />
        </mxCell>
        <mxCell id="cc7sxFCVyo9TV1B_5zIe-150" value="+getShape(shapeId: string) : : IShape" style="text;strokeColor=none;fillColor=none;align=left;verticalAlign=top;spacingLeft=4;spacingRight=4;overflow=hidden;rotatable=0;points=[[0,0.5],[1,0.5]];portConstraint=eastwest;whiteSpace=wrap;html=1;" parent="cc7sxFCVyo9TV1B_5zIe-138" vertex="1">
          <mxGeometry y="424" width="490" height="26" as="geometry" />
        </mxCell>
        <mxCell id="cc7sxFCVyo9TV1B_5zIe-156" value="+getShapeIdToShapeMap() : : Map" style="text;strokeColor=none;fillColor=none;align=left;verticalAlign=top;spacingLeft=4;spacingRight=4;overflow=hidden;rotatable=0;points=[[0,0.5],[1,0.5]];portConstraint=eastwest;whiteSpace=wrap;html=1;" parent="cc7sxFCVyo9TV1B_5zIe-138" vertex="1">
          <mxGeometry y="450" width="490" height="26" as="geometry" />
        </mxCell>
        <mxCell id="cc7sxFCVyo9TV1B_5zIe-157" value="+getCanvasSize() : : ShapeSize" style="text;strokeColor=none;fillColor=none;align=left;verticalAlign=top;spacingLeft=4;spacingRight=4;overflow=hidden;rotatable=0;points=[[0,0.5],[1,0.5]];portConstraint=eastwest;whiteSpace=wrap;html=1;" parent="cc7sxFCVyo9TV1B_5zIe-138" vertex="1">
          <mxGeometry y="476" width="490" height="26" as="geometry" />
        </mxCell>
        <mxCell id="cc7sxFCVyo9TV1B_5zIe-158" value="+serializeCanvasToJson() : : string" style="text;strokeColor=none;fillColor=none;align=left;verticalAlign=top;spacingLeft=4;spacingRight=4;overflow=hidden;rotatable=0;points=[[0,0.5],[1,0.5]];portConstraint=eastwest;whiteSpace=wrap;html=1;" parent="cc7sxFCVyo9TV1B_5zIe-138" vertex="1">
          <mxGeometry y="502" width="490" height="26" as="geometry" />
        </mxCell>
        <mxCell id="cc7sxFCVyo9TV1B_5zIe-159" value="BaseShape" style="swimlane;fontStyle=1;align=center;verticalAlign=top;childLayout=stackLayout;horizontal=1;startSize=26;horizontalStack=0;resizeParent=1;resizeParentMax=0;resizeLast=0;collapsible=1;marginBottom=0;whiteSpace=wrap;html=1;" parent="1" vertex="1">
          <mxGeometry x="880" y="2010" width="490" height="216" as="geometry" />
        </mxCell>
        <mxCell id="cc7sxFCVyo9TV1B_5zIe-160" value="- position: ShapePosition" style="text;strokeColor=none;fillColor=none;align=left;verticalAlign=top;spacingLeft=4;spacingRight=4;overflow=hidden;rotatable=0;points=[[0,0.5],[1,0.5]];portConstraint=eastwest;whiteSpace=wrap;html=1;" parent="cc7sxFCVyo9TV1B_5zIe-159" vertex="1">
          <mxGeometry y="26" width="490" height="26" as="geometry" />
        </mxCell>
        <mxCell id="cc7sxFCVyo9TV1B_5zIe-165" value="- size: ShapeSize" style="text;strokeColor=none;fillColor=none;align=left;verticalAlign=top;spacingLeft=4;spacingRight=4;overflow=hidden;rotatable=0;points=[[0,0.5],[1,0.5]];portConstraint=eastwest;whiteSpace=wrap;html=1;" parent="cc7sxFCVyo9TV1B_5zIe-159" vertex="1">
          <mxGeometry y="52" width="490" height="26" as="geometry" />
        </mxCell>
        <mxCell id="cc7sxFCVyo9TV1B_5zIe-161" value="" style="line;strokeWidth=1;fillColor=none;align=left;verticalAlign=middle;spacingTop=-1;spacingLeft=3;spacingRight=3;rotatable=0;labelPosition=right;points=[];portConstraint=eastwest;strokeColor=inherit;" parent="cc7sxFCVyo9TV1B_5zIe-159" vertex="1">
          <mxGeometry y="78" width="490" height="8" as="geometry" />
        </mxCell>
        <mxCell id="cc7sxFCVyo9TV1B_5zIe-162" value="+getPosition() : : ShapePosition" style="text;strokeColor=none;fillColor=none;align=left;verticalAlign=top;spacingLeft=4;spacingRight=4;overflow=hidden;rotatable=0;points=[[0,0.5],[1,0.5]];portConstraint=eastwest;whiteSpace=wrap;html=1;" parent="cc7sxFCVyo9TV1B_5zIe-159" vertex="1">
          <mxGeometry y="86" width="490" height="26" as="geometry" />
        </mxCell>
        <mxCell id="cc7sxFCVyo9TV1B_5zIe-163" value="+getSize() : : ShapeSize" style="text;strokeColor=none;fillColor=none;align=left;verticalAlign=top;spacingLeft=4;spacingRight=4;overflow=hidden;rotatable=0;points=[[0,0.5],[1,0.5]];portConstraint=eastwest;whiteSpace=wrap;html=1;" parent="cc7sxFCVyo9TV1B_5zIe-159" vertex="1">
          <mxGeometry y="112" width="490" height="26" as="geometry" />
        </mxCell>
        <mxCell id="cc7sxFCVyo9TV1B_5zIe-166" value="+resize(size: ShapeSize) : : void" style="text;strokeColor=none;fillColor=none;align=left;verticalAlign=top;spacingLeft=4;spacingRight=4;overflow=hidden;rotatable=0;points=[[0,0.5],[1,0.5]];portConstraint=eastwest;whiteSpace=wrap;html=1;" parent="cc7sxFCVyo9TV1B_5zIe-159" vertex="1">
          <mxGeometry y="138" width="490" height="26" as="geometry" />
        </mxCell>
        <mxCell id="cc7sxFCVyo9TV1B_5zIe-167" value="+move(position: ShapePosition) : : void" style="text;strokeColor=none;fillColor=none;align=left;verticalAlign=top;spacingLeft=4;spacingRight=4;overflow=hidden;rotatable=0;points=[[0,0.5],[1,0.5]];portConstraint=eastwest;whiteSpace=wrap;html=1;" parent="cc7sxFCVyo9TV1B_5zIe-159" vertex="1">
          <mxGeometry y="164" width="490" height="26" as="geometry" />
        </mxCell>
        <mxCell id="cc7sxFCVyo9TV1B_5zIe-164" value="+getType() : : ShapeType" style="text;strokeColor=none;fillColor=none;align=left;verticalAlign=top;spacingLeft=4;spacingRight=4;overflow=hidden;rotatable=0;points=[[0,0.5],[1,0.5]];portConstraint=eastwest;whiteSpace=wrap;html=1;" parent="cc7sxFCVyo9TV1B_5zIe-159" vertex="1">
          <mxGeometry y="190" width="490" height="26" as="geometry" />
        </mxCell>
        <mxCell id="cc7sxFCVyo9TV1B_5zIe-168" value="ShapeFactory" style="swimlane;fontStyle=1;align=center;verticalAlign=top;childLayout=stackLayout;horizontal=1;startSize=26;horizontalStack=0;resizeParent=1;resizeParentMax=0;resizeLast=0;collapsible=1;marginBottom=0;whiteSpace=wrap;html=1;" parent="1" vertex="1">
          <mxGeometry x="290" y="2024" width="370" height="60" as="geometry" />
        </mxCell>
        <mxCell id="cc7sxFCVyo9TV1B_5zIe-171" value="" style="line;strokeWidth=1;fillColor=none;align=left;verticalAlign=middle;spacingTop=-1;spacingLeft=3;spacingRight=3;rotatable=0;labelPosition=right;points=[];portConstraint=eastwest;strokeColor=inherit;" parent="cc7sxFCVyo9TV1B_5zIe-168" vertex="1">
          <mxGeometry y="26" width="370" height="8" as="geometry" />
        </mxCell>
        <mxCell id="cc7sxFCVyo9TV1B_5zIe-172" value="+constructShape(type: ShapeType, data?: string) : : BaseShape" style="text;strokeColor=none;fillColor=none;align=left;verticalAlign=top;spacingLeft=4;spacingRight=4;overflow=hidden;rotatable=0;points=[[0,0.5],[1,0.5]];portConstraint=eastwest;whiteSpace=wrap;html=1;" parent="cc7sxFCVyo9TV1B_5zIe-168" vertex="1">
          <mxGeometry y="34" width="370" height="26" as="geometry" />
        </mxCell>
        <mxCell id="cc7sxFCVyo9TV1B_5zIe-177" value="Ellipse" style="swimlane;fontStyle=1;align=center;verticalAlign=top;childLayout=stackLayout;horizontal=1;startSize=26;horizontalStack=0;resizeParent=1;resizeParentMax=0;resizeLast=0;collapsible=1;marginBottom=0;whiteSpace=wrap;html=1;" parent="1" vertex="1">
          <mxGeometry x="670" y="2300" width="200" height="60" as="geometry" />
        </mxCell>
        <mxCell id="cc7sxFCVyo9TV1B_5zIe-178" value="" style="line;strokeWidth=1;fillColor=none;align=left;verticalAlign=middle;spacingTop=-1;spacingLeft=3;spacingRight=3;rotatable=0;labelPosition=right;points=[];portConstraint=eastwest;strokeColor=inherit;" parent="cc7sxFCVyo9TV1B_5zIe-177" vertex="1">
          <mxGeometry y="26" width="200" height="8" as="geometry" />
        </mxCell>
        <mxCell id="cc7sxFCVyo9TV1B_5zIe-179" value="+getType() : : ShapeType" style="text;strokeColor=none;fillColor=none;align=left;verticalAlign=top;spacingLeft=4;spacingRight=4;overflow=hidden;rotatable=0;points=[[0,0.5],[1,0.5]];portConstraint=eastwest;whiteSpace=wrap;html=1;" parent="cc7sxFCVyo9TV1B_5zIe-177" vertex="1">
          <mxGeometry y="34" width="200" height="26" as="geometry" />
        </mxCell>
        <mxCell id="cc7sxFCVyo9TV1B_5zIe-180" value="Rectangle" style="swimlane;fontStyle=1;align=center;verticalAlign=top;childLayout=stackLayout;horizontal=1;startSize=26;horizontalStack=0;resizeParent=1;resizeParentMax=0;resizeLast=0;collapsible=1;marginBottom=0;whiteSpace=wrap;html=1;" parent="1" vertex="1">
          <mxGeometry x="916" y="2300" width="200" height="60" as="geometry" />
        </mxCell>
        <mxCell id="cc7sxFCVyo9TV1B_5zIe-181" value="" style="line;strokeWidth=1;fillColor=none;align=left;verticalAlign=middle;spacingTop=-1;spacingLeft=3;spacingRight=3;rotatable=0;labelPosition=right;points=[];portConstraint=eastwest;strokeColor=inherit;" parent="cc7sxFCVyo9TV1B_5zIe-180" vertex="1">
          <mxGeometry y="26" width="200" height="8" as="geometry" />
        </mxCell>
        <mxCell id="cc7sxFCVyo9TV1B_5zIe-182" value="+getType() : : ShapeType" style="text;strokeColor=none;fillColor=none;align=left;verticalAlign=top;spacingLeft=4;spacingRight=4;overflow=hidden;rotatable=0;points=[[0,0.5],[1,0.5]];portConstraint=eastwest;whiteSpace=wrap;html=1;" parent="cc7sxFCVyo9TV1B_5zIe-180" vertex="1">
          <mxGeometry y="34" width="200" height="26" as="geometry" />
        </mxCell>
        <mxCell id="cc7sxFCVyo9TV1B_5zIe-183" value="Triangle" style="swimlane;fontStyle=1;align=center;verticalAlign=top;childLayout=stackLayout;horizontal=1;startSize=26;horizontalStack=0;resizeParent=1;resizeParentMax=0;resizeLast=0;collapsible=1;marginBottom=0;whiteSpace=wrap;html=1;" parent="1" vertex="1">
          <mxGeometry x="1156" y="2300" width="200" height="60" as="geometry" />
        </mxCell>
        <mxCell id="cc7sxFCVyo9TV1B_5zIe-184" value="" style="line;strokeWidth=1;fillColor=none;align=left;verticalAlign=middle;spacingTop=-1;spacingLeft=3;spacingRight=3;rotatable=0;labelPosition=right;points=[];portConstraint=eastwest;strokeColor=inherit;" parent="cc7sxFCVyo9TV1B_5zIe-183" vertex="1">
          <mxGeometry y="26" width="200" height="8" as="geometry" />
        </mxCell>
        <mxCell id="cc7sxFCVyo9TV1B_5zIe-185" value="+getType() : : ShapeType" style="text;strokeColor=none;fillColor=none;align=left;verticalAlign=top;spacingLeft=4;spacingRight=4;overflow=hidden;rotatable=0;points=[[0,0.5],[1,0.5]];portConstraint=eastwest;whiteSpace=wrap;html=1;" parent="cc7sxFCVyo9TV1B_5zIe-183" vertex="1">
          <mxGeometry y="34" width="200" height="26" as="geometry" />
        </mxCell>
        <mxCell id="cc7sxFCVyo9TV1B_5zIe-186" value="ImageShape" style="swimlane;fontStyle=1;align=center;verticalAlign=top;childLayout=stackLayout;horizontal=1;startSize=26;horizontalStack=0;resizeParent=1;resizeParentMax=0;resizeLast=0;collapsible=1;marginBottom=0;whiteSpace=wrap;html=1;" parent="1" vertex="1">
          <mxGeometry x="1406" y="2300" width="200" height="112" as="geometry" />
        </mxCell>
        <mxCell id="cc7sxFCVyo9TV1B_5zIe-189" value="- data: string" style="text;strokeColor=none;fillColor=none;align=left;verticalAlign=top;spacingLeft=4;spacingRight=4;overflow=hidden;rotatable=0;points=[[0,0.5],[1,0.5]];portConstraint=eastwest;whiteSpace=wrap;html=1;" parent="cc7sxFCVyo9TV1B_5zIe-186" vertex="1">
          <mxGeometry y="26" width="200" height="26" as="geometry" />
        </mxCell>
        <mxCell id="cc7sxFCVyo9TV1B_5zIe-187" value="" style="line;strokeWidth=1;fillColor=none;align=left;verticalAlign=middle;spacingTop=-1;spacingLeft=3;spacingRight=3;rotatable=0;labelPosition=right;points=[];portConstraint=eastwest;strokeColor=inherit;" parent="cc7sxFCVyo9TV1B_5zIe-186" vertex="1">
          <mxGeometry y="52" width="200" height="8" as="geometry" />
        </mxCell>
        <mxCell id="cc7sxFCVyo9TV1B_5zIe-190" value="+getType() : : ShapeType" style="text;strokeColor=none;fillColor=none;align=left;verticalAlign=top;spacingLeft=4;spacingRight=4;overflow=hidden;rotatable=0;points=[[0,0.5],[1,0.5]];portConstraint=eastwest;whiteSpace=wrap;html=1;" parent="cc7sxFCVyo9TV1B_5zIe-186" vertex="1">
          <mxGeometry y="60" width="200" height="26" as="geometry" />
        </mxCell>
        <mxCell id="cc7sxFCVyo9TV1B_5zIe-188" value="+getData() : : string" style="text;strokeColor=none;fillColor=none;align=left;verticalAlign=top;spacingLeft=4;spacingRight=4;overflow=hidden;rotatable=0;points=[[0,0.5],[1,0.5]];portConstraint=eastwest;whiteSpace=wrap;html=1;" parent="cc7sxFCVyo9TV1B_5zIe-186" vertex="1">
          <mxGeometry y="86" width="200" height="26" as="geometry" />
        </mxCell>
        <mxCell id="cc7sxFCVyo9TV1B_5zIe-192" value="&lt;i&gt;ICanvasModel&lt;/i&gt;" style="swimlane;fontStyle=1;align=center;verticalAlign=top;childLayout=stackLayout;horizontal=1;startSize=26;horizontalStack=0;resizeParent=1;resizeParentMax=0;resizeLast=0;collapsible=1;marginBottom=0;whiteSpace=wrap;html=1;" parent="1" vertex="1">
          <mxGeometry x="1575" y="1350" width="360" height="320" as="geometry" />
        </mxCell>
        <mxCell id="cc7sxFCVyo9TV1B_5zIe-194" value="" style="line;strokeWidth=1;fillColor=none;align=left;verticalAlign=middle;spacingTop=-1;spacingLeft=3;spacingRight=3;rotatable=0;labelPosition=right;points=[];portConstraint=eastwest;strokeColor=inherit;" parent="cc7sxFCVyo9TV1B_5zIe-192" vertex="1">
          <mxGeometry y="26" width="360" height="8" as="geometry" />
        </mxCell>
        <mxCell id="cc7sxFCVyo9TV1B_5zIe-195" value="+addArtObject(type: ArtObjectType)" style="text;strokeColor=none;fillColor=none;align=left;verticalAlign=top;spacingLeft=4;spacingRight=4;overflow=hidden;rotatable=0;points=[[0,0.5],[1,0.5]];portConstraint=eastwest;whiteSpace=wrap;html=1;" parent="cc7sxFCVyo9TV1B_5zIe-192" vertex="1">
          <mxGeometry y="34" width="360" height="26" as="geometry" />
        </mxCell>
        <mxCell id="cc7sxFCVyo9TV1B_5zIe-199" value="+addImage(data: string)" style="text;strokeColor=none;fillColor=none;align=left;verticalAlign=top;spacingLeft=4;spacingRight=4;overflow=hidden;rotatable=0;points=[[0,0.5],[1,0.5]];portConstraint=eastwest;whiteSpace=wrap;html=1;" parent="cc7sxFCVyo9TV1B_5zIe-192" vertex="1">
          <mxGeometry y="60" width="360" height="26" as="geometry" />
        </mxCell>
        <mxCell id="cc7sxFCVyo9TV1B_5zIe-200" value="+removeShape(shapeId: string)" style="text;strokeColor=none;fillColor=none;align=left;verticalAlign=top;spacingLeft=4;spacingRight=4;overflow=hidden;rotatable=0;points=[[0,0.5],[1,0.5]];portConstraint=eastwest;whiteSpace=wrap;html=1;" parent="cc7sxFCVyo9TV1B_5zIe-192" vertex="1">
          <mxGeometry y="86" width="360" height="26" as="geometry" />
        </mxCell>
        <mxCell id="cc7sxFCVyo9TV1B_5zIe-201" value="+undo()" style="text;strokeColor=none;fillColor=none;align=left;verticalAlign=top;spacingLeft=4;spacingRight=4;overflow=hidden;rotatable=0;points=[[0,0.5],[1,0.5]];portConstraint=eastwest;whiteSpace=wrap;html=1;" parent="cc7sxFCVyo9TV1B_5zIe-192" vertex="1">
          <mxGeometry y="112" width="360" height="26" as="geometry" />
        </mxCell>
        <mxCell id="cc7sxFCVyo9TV1B_5zIe-202" value="+redo()" style="text;strokeColor=none;fillColor=none;align=left;verticalAlign=top;spacingLeft=4;spacingRight=4;overflow=hidden;rotatable=0;points=[[0,0.5],[1,0.5]];portConstraint=eastwest;whiteSpace=wrap;html=1;" parent="cc7sxFCVyo9TV1B_5zIe-192" vertex="1">
          <mxGeometry y="138" width="360" height="26" as="geometry" />
        </mxCell>
        <mxCell id="cc7sxFCVyo9TV1B_5zIe-203" value="+canUndo()" style="text;strokeColor=none;fillColor=none;align=left;verticalAlign=top;spacingLeft=4;spacingRight=4;overflow=hidden;rotatable=0;points=[[0,0.5],[1,0.5]];portConstraint=eastwest;whiteSpace=wrap;html=1;" parent="cc7sxFCVyo9TV1B_5zIe-192" vertex="1">
          <mxGeometry y="164" width="360" height="26" as="geometry" />
        </mxCell>
        <mxCell id="cc7sxFCVyo9TV1B_5zIe-204" value="+canRedo()" style="text;strokeColor=none;fillColor=none;align=left;verticalAlign=top;spacingLeft=4;spacingRight=4;overflow=hidden;rotatable=0;points=[[0,0.5],[1,0.5]];portConstraint=eastwest;whiteSpace=wrap;html=1;" parent="cc7sxFCVyo9TV1B_5zIe-192" vertex="1">
          <mxGeometry y="190" width="360" height="26" as="geometry" />
        </mxCell>
        <mxCell id="cc7sxFCVyo9TV1B_5zIe-205" value="+loadCanvasFromJson(jsonString: string)" style="text;strokeColor=none;fillColor=none;align=left;verticalAlign=top;spacingLeft=4;spacingRight=4;overflow=hidden;rotatable=0;points=[[0,0.5],[1,0.5]];portConstraint=eastwest;whiteSpace=wrap;html=1;" parent="cc7sxFCVyo9TV1B_5zIe-192" vertex="1">
          <mxGeometry y="216" width="360" height="26" as="geometry" />
        </mxCell>
        <mxCell id="cc7sxFCVyo9TV1B_5zIe-206" value="+addObserver(onShapeChange: ShapeChangeObserver)" style="text;strokeColor=none;fillColor=none;align=left;verticalAlign=top;spacingLeft=4;spacingRight=4;overflow=hidden;rotatable=0;points=[[0,0.5],[1,0.5]];portConstraint=eastwest;whiteSpace=wrap;html=1;" parent="cc7sxFCVyo9TV1B_5zIe-192" vertex="1">
          <mxGeometry y="242" width="360" height="26" as="geometry" />
        </mxCell>
        <mxCell id="cc7sxFCVyo9TV1B_5zIe-207" value="+removeObserver(onShapeChange: ShapeChangeObserver)" style="text;strokeColor=none;fillColor=none;align=left;verticalAlign=top;spacingLeft=4;spacingRight=4;overflow=hidden;rotatable=0;points=[[0,0.5],[1,0.5]];portConstraint=eastwest;whiteSpace=wrap;html=1;" parent="cc7sxFCVyo9TV1B_5zIe-192" vertex="1">
          <mxGeometry y="268" width="360" height="26" as="geometry" />
        </mxCell>
        <mxCell id="cc7sxFCVyo9TV1B_5zIe-208" value="+updateShapeSizeAndPosition(shapeId: string, changes)" style="text;strokeColor=none;fillColor=none;align=left;verticalAlign=top;spacingLeft=4;spacingRight=4;overflow=hidden;rotatable=0;points=[[0,0.5],[1,0.5]];portConstraint=eastwest;whiteSpace=wrap;html=1;" parent="cc7sxFCVyo9TV1B_5zIe-192" vertex="1">
          <mxGeometry y="294" width="360" height="26" as="geometry" />
        </mxCell>
        <mxCell id="cc7sxFCVyo9TV1B_5zIe-213" value="&lt;i&gt;ICanvasReadModel&lt;/i&gt;" style="swimlane;fontStyle=1;align=center;verticalAlign=top;childLayout=stackLayout;horizontal=1;startSize=26;horizontalStack=0;resizeParent=1;resizeParentMax=0;resizeLast=0;collapsible=1;marginBottom=0;whiteSpace=wrap;html=1;" parent="1" vertex="1">
          <mxGeometry x="2170" y="1880" width="360" height="320" as="geometry" />
        </mxCell>
        <mxCell id="cc7sxFCVyo9TV1B_5zIe-214" value="" style="line;strokeWidth=1;fillColor=none;align=left;verticalAlign=middle;spacingTop=-1;spacingLeft=3;spacingRight=3;rotatable=0;labelPosition=right;points=[];portConstraint=eastwest;strokeColor=inherit;" parent="cc7sxFCVyo9TV1B_5zIe-213" vertex="1">
          <mxGeometry y="26" width="360" height="8" as="geometry" />
        </mxCell>
        <mxCell id="cc7sxFCVyo9TV1B_5zIe-215" value="+addArtObject(type: ArtObjectType)" style="text;strokeColor=none;fillColor=none;align=left;verticalAlign=top;spacingLeft=4;spacingRight=4;overflow=hidden;rotatable=0;points=[[0,0.5],[1,0.5]];portConstraint=eastwest;whiteSpace=wrap;html=1;" parent="cc7sxFCVyo9TV1B_5zIe-213" vertex="1">
          <mxGeometry y="34" width="360" height="26" as="geometry" />
        </mxCell>
        <mxCell id="cc7sxFCVyo9TV1B_5zIe-216" value="+addImage(data: string)" style="text;strokeColor=none;fillColor=none;align=left;verticalAlign=top;spacingLeft=4;spacingRight=4;overflow=hidden;rotatable=0;points=[[0,0.5],[1,0.5]];portConstraint=eastwest;whiteSpace=wrap;html=1;" parent="cc7sxFCVyo9TV1B_5zIe-213" vertex="1">
          <mxGeometry y="60" width="360" height="26" as="geometry" />
        </mxCell>
        <mxCell id="cc7sxFCVyo9TV1B_5zIe-217" value="+removeShape(shapeId: string)" style="text;strokeColor=none;fillColor=none;align=left;verticalAlign=top;spacingLeft=4;spacingRight=4;overflow=hidden;rotatable=0;points=[[0,0.5],[1,0.5]];portConstraint=eastwest;whiteSpace=wrap;html=1;" parent="cc7sxFCVyo9TV1B_5zIe-213" vertex="1">
          <mxGeometry y="86" width="360" height="26" as="geometry" />
        </mxCell>
        <mxCell id="cc7sxFCVyo9TV1B_5zIe-218" value="+undo()" style="text;strokeColor=none;fillColor=none;align=left;verticalAlign=top;spacingLeft=4;spacingRight=4;overflow=hidden;rotatable=0;points=[[0,0.5],[1,0.5]];portConstraint=eastwest;whiteSpace=wrap;html=1;" parent="cc7sxFCVyo9TV1B_5zIe-213" vertex="1">
          <mxGeometry y="112" width="360" height="26" as="geometry" />
        </mxCell>
        <mxCell id="cc7sxFCVyo9TV1B_5zIe-219" value="+redo()" style="text;strokeColor=none;fillColor=none;align=left;verticalAlign=top;spacingLeft=4;spacingRight=4;overflow=hidden;rotatable=0;points=[[0,0.5],[1,0.5]];portConstraint=eastwest;whiteSpace=wrap;html=1;" parent="cc7sxFCVyo9TV1B_5zIe-213" vertex="1">
          <mxGeometry y="138" width="360" height="26" as="geometry" />
        </mxCell>
        <mxCell id="cc7sxFCVyo9TV1B_5zIe-220" value="+canUndo()" style="text;strokeColor=none;fillColor=none;align=left;verticalAlign=top;spacingLeft=4;spacingRight=4;overflow=hidden;rotatable=0;points=[[0,0.5],[1,0.5]];portConstraint=eastwest;whiteSpace=wrap;html=1;" parent="cc7sxFCVyo9TV1B_5zIe-213" vertex="1">
          <mxGeometry y="164" width="360" height="26" as="geometry" />
        </mxCell>
        <mxCell id="cc7sxFCVyo9TV1B_5zIe-221" value="+canRedo()" style="text;strokeColor=none;fillColor=none;align=left;verticalAlign=top;spacingLeft=4;spacingRight=4;overflow=hidden;rotatable=0;points=[[0,0.5],[1,0.5]];portConstraint=eastwest;whiteSpace=wrap;html=1;" parent="cc7sxFCVyo9TV1B_5zIe-213" vertex="1">
          <mxGeometry y="190" width="360" height="26" as="geometry" />
        </mxCell>
        <mxCell id="cc7sxFCVyo9TV1B_5zIe-222" value="+loadCanvasFromJson(jsonString: string)" style="text;strokeColor=none;fillColor=none;align=left;verticalAlign=top;spacingLeft=4;spacingRight=4;overflow=hidden;rotatable=0;points=[[0,0.5],[1,0.5]];portConstraint=eastwest;whiteSpace=wrap;html=1;" parent="cc7sxFCVyo9TV1B_5zIe-213" vertex="1">
          <mxGeometry y="216" width="360" height="26" as="geometry" />
        </mxCell>
        <mxCell id="cc7sxFCVyo9TV1B_5zIe-223" value="+addObserver(onShapeChange: ShapeChangeObserver)" style="text;strokeColor=none;fillColor=none;align=left;verticalAlign=top;spacingLeft=4;spacingRight=4;overflow=hidden;rotatable=0;points=[[0,0.5],[1,0.5]];portConstraint=eastwest;whiteSpace=wrap;html=1;" parent="cc7sxFCVyo9TV1B_5zIe-213" vertex="1">
          <mxGeometry y="242" width="360" height="26" as="geometry" />
        </mxCell>
        <mxCell id="cc7sxFCVyo9TV1B_5zIe-224" value="+removeObserver(onShapeChange: ShapeChangeObserver)" style="text;strokeColor=none;fillColor=none;align=left;verticalAlign=top;spacingLeft=4;spacingRight=4;overflow=hidden;rotatable=0;points=[[0,0.5],[1,0.5]];portConstraint=eastwest;whiteSpace=wrap;html=1;" parent="cc7sxFCVyo9TV1B_5zIe-213" vertex="1">
          <mxGeometry y="268" width="360" height="26" as="geometry" />
        </mxCell>
        <mxCell id="cc7sxFCVyo9TV1B_5zIe-225" value="+updateShapeSizeAndPosition(shapeId: string, changes)" style="text;strokeColor=none;fillColor=none;align=left;verticalAlign=top;spacingLeft=4;spacingRight=4;overflow=hidden;rotatable=0;points=[[0,0.5],[1,0.5]];portConstraint=eastwest;whiteSpace=wrap;html=1;" parent="cc7sxFCVyo9TV1B_5zIe-213" vertex="1">
          <mxGeometry y="294" width="360" height="26" as="geometry" />
        </mxCell>
        <mxCell id="cc7sxFCVyo9TV1B_5zIe-226" value="&lt;i&gt;IShape&lt;/i&gt;" style="swimlane;fontStyle=1;align=center;verticalAlign=top;childLayout=stackLayout;horizontal=1;startSize=26;horizontalStack=0;resizeParent=1;resizeParentMax=0;resizeLast=0;collapsible=1;marginBottom=0;whiteSpace=wrap;html=1;" parent="1" vertex="1">
          <mxGeometry x="1725" y="2370" width="360" height="112" as="geometry" />
        </mxCell>
        <mxCell id="cc7sxFCVyo9TV1B_5zIe-227" value="" style="line;strokeWidth=1;fillColor=none;align=left;verticalAlign=middle;spacingTop=-1;spacingLeft=3;spacingRight=3;rotatable=0;labelPosition=right;points=[];portConstraint=eastwest;strokeColor=inherit;" parent="cc7sxFCVyo9TV1B_5zIe-226" vertex="1">
          <mxGeometry y="26" width="360" height="8" as="geometry" />
        </mxCell>
        <mxCell id="cc7sxFCVyo9TV1B_5zIe-229" value="+getPosition() : : ShapePosition" style="text;strokeColor=none;fillColor=none;align=left;verticalAlign=top;spacingLeft=4;spacingRight=4;overflow=hidden;rotatable=0;points=[[0,0.5],[1,0.5]];portConstraint=eastwest;whiteSpace=wrap;html=1;" parent="cc7sxFCVyo9TV1B_5zIe-226" vertex="1">
          <mxGeometry y="34" width="360" height="26" as="geometry" />
        </mxCell>
        <mxCell id="cc7sxFCVyo9TV1B_5zIe-230" value="+getSize() : : ShapeSize" style="text;strokeColor=none;fillColor=none;align=left;verticalAlign=top;spacingLeft=4;spacingRight=4;overflow=hidden;rotatable=0;points=[[0,0.5],[1,0.5]];portConstraint=eastwest;whiteSpace=wrap;html=1;" parent="cc7sxFCVyo9TV1B_5zIe-226" vertex="1">
          <mxGeometry y="60" width="360" height="26" as="geometry" />
        </mxCell>
        <mxCell id="cc7sxFCVyo9TV1B_5zIe-231" value="+move(position: ShapePosition) : : void" style="text;strokeColor=none;fillColor=none;align=left;verticalAlign=top;spacingLeft=4;spacingRight=4;overflow=hidden;rotatable=0;points=[[0,0.5],[1,0.5]];portConstraint=eastwest;whiteSpace=wrap;html=1;" parent="cc7sxFCVyo9TV1B_5zIe-226" vertex="1">
          <mxGeometry y="86" width="360" height="26" as="geometry" />
        </mxCell>
        <mxCell id="cc7sxFCVyo9TV1B_5zIe-239" value="History" style="swimlane;fontStyle=1;align=center;verticalAlign=top;childLayout=stackLayout;horizontal=1;startSize=26;horizontalStack=0;resizeParent=1;resizeParentMax=0;resizeLast=0;collapsible=1;marginBottom=0;whiteSpace=wrap;html=1;" parent="1" vertex="1">
          <mxGeometry x="190" y="1600" width="360" height="190" as="geometry" />
        </mxCell>
        <mxCell id="cc7sxFCVyo9TV1B_5zIe-240" value="" style="line;strokeWidth=1;fillColor=none;align=left;verticalAlign=middle;spacingTop=-1;spacingLeft=3;spacingRight=3;rotatable=0;labelPosition=right;points=[];portConstraint=eastwest;strokeColor=inherit;" parent="cc7sxFCVyo9TV1B_5zIe-239" vertex="1">
          <mxGeometry y="26" width="360" height="8" as="geometry" />
        </mxCell>
        <mxCell id="cc7sxFCVyo9TV1B_5zIe-241" value="+canUndo() : : boolean" style="text;strokeColor=none;fillColor=none;align=left;verticalAlign=top;spacingLeft=4;spacingRight=4;overflow=hidden;rotatable=0;points=[[0,0.5],[1,0.5]];portConstraint=eastwest;whiteSpace=wrap;html=1;" parent="cc7sxFCVyo9TV1B_5zIe-239" vertex="1">
          <mxGeometry y="34" width="360" height="26" as="geometry" />
        </mxCell>
        <mxCell id="cc7sxFCVyo9TV1B_5zIe-242" value="+canRedo() : : boolean" style="text;strokeColor=none;fillColor=none;align=left;verticalAlign=top;spacingLeft=4;spacingRight=4;overflow=hidden;rotatable=0;points=[[0,0.5],[1,0.5]];portConstraint=eastwest;whiteSpace=wrap;html=1;" parent="cc7sxFCVyo9TV1B_5zIe-239" vertex="1">
          <mxGeometry y="60" width="360" height="26" as="geometry" />
        </mxCell>
        <mxCell id="cc7sxFCVyo9TV1B_5zIe-244" value="+undo()" style="text;strokeColor=none;fillColor=none;align=left;verticalAlign=top;spacingLeft=4;spacingRight=4;overflow=hidden;rotatable=0;points=[[0,0.5],[1,0.5]];portConstraint=eastwest;whiteSpace=wrap;html=1;" parent="cc7sxFCVyo9TV1B_5zIe-239" vertex="1">
          <mxGeometry y="86" width="360" height="26" as="geometry" />
        </mxCell>
        <mxCell id="cc7sxFCVyo9TV1B_5zIe-246" value="+redo()" style="text;strokeColor=none;fillColor=none;align=left;verticalAlign=top;spacingLeft=4;spacingRight=4;overflow=hidden;rotatable=0;points=[[0,0.5],[1,0.5]];portConstraint=eastwest;whiteSpace=wrap;html=1;" parent="cc7sxFCVyo9TV1B_5zIe-239" vertex="1">
          <mxGeometry y="112" width="360" height="26" as="geometry" />
        </mxCell>
        <mxCell id="cc7sxFCVyo9TV1B_5zIe-247" value="+clear()" style="text;strokeColor=none;fillColor=none;align=left;verticalAlign=top;spacingLeft=4;spacingRight=4;overflow=hidden;rotatable=0;points=[[0,0.5],[1,0.5]];portConstraint=eastwest;whiteSpace=wrap;html=1;" parent="cc7sxFCVyo9TV1B_5zIe-239" vertex="1">
          <mxGeometry y="138" width="360" height="26" as="geometry" />
        </mxCell>
        <mxCell id="cc7sxFCVyo9TV1B_5zIe-245" value="+addAndExecuteCommand(command: ICommand)" style="text;strokeColor=none;fillColor=none;align=left;verticalAlign=top;spacingLeft=4;spacingRight=4;overflow=hidden;rotatable=0;points=[[0,0.5],[1,0.5]];portConstraint=eastwest;whiteSpace=wrap;html=1;" parent="cc7sxFCVyo9TV1B_5zIe-239" vertex="1">
          <mxGeometry y="164" width="360" height="26" as="geometry" />
        </mxCell>
        <mxCell id="cc7sxFCVyo9TV1B_5zIe-248" value="&lt;i&gt;ICommand&lt;/i&gt;" style="swimlane;fontStyle=1;align=center;verticalAlign=top;childLayout=stackLayout;horizontal=1;startSize=26;horizontalStack=0;resizeParent=1;resizeParentMax=0;resizeLast=0;collapsible=1;marginBottom=0;whiteSpace=wrap;html=1;" parent="1" vertex="1">
          <mxGeometry x="-340" y="1920" width="360" height="164" as="geometry" />
        </mxCell>
        <mxCell id="cc7sxFCVyo9TV1B_5zIe-249" value="" style="line;strokeWidth=1;fillColor=none;align=left;verticalAlign=middle;spacingTop=-1;spacingLeft=3;spacingRight=3;rotatable=0;labelPosition=right;points=[];portConstraint=eastwest;strokeColor=inherit;" parent="cc7sxFCVyo9TV1B_5zIe-248" vertex="1">
          <mxGeometry y="26" width="360" height="8" as="geometry" />
        </mxCell>
        <mxCell id="cc7sxFCVyo9TV1B_5zIe-250" value="+execute()" style="text;strokeColor=none;fillColor=none;align=left;verticalAlign=top;spacingLeft=4;spacingRight=4;overflow=hidden;rotatable=0;points=[[0,0.5],[1,0.5]];portConstraint=eastwest;whiteSpace=wrap;html=1;" parent="cc7sxFCVyo9TV1B_5zIe-248" vertex="1">
          <mxGeometry y="34" width="360" height="26" as="geometry" />
        </mxCell>
        <mxCell id="cc7sxFCVyo9TV1B_5zIe-251" value="+unexecute()" style="text;strokeColor=none;fillColor=none;align=left;verticalAlign=top;spacingLeft=4;spacingRight=4;overflow=hidden;rotatable=0;points=[[0,0.5],[1,0.5]];portConstraint=eastwest;whiteSpace=wrap;html=1;" parent="cc7sxFCVyo9TV1B_5zIe-248" vertex="1">
          <mxGeometry y="60" width="360" height="26" as="geometry" />
        </mxCell>
        <mxCell id="cc7sxFCVyo9TV1B_5zIe-252" value="+destroy()" style="text;strokeColor=none;fillColor=none;align=left;verticalAlign=top;spacingLeft=4;spacingRight=4;overflow=hidden;rotatable=0;points=[[0,0.5],[1,0.5]];portConstraint=eastwest;whiteSpace=wrap;html=1;" parent="cc7sxFCVyo9TV1B_5zIe-248" vertex="1">
          <mxGeometry y="86" width="360" height="26" as="geometry" />
        </mxCell>
        <mxCell id="cc7sxFCVyo9TV1B_5zIe-253" value="+canMergeWith(command: ICommand) : : boolean" style="text;strokeColor=none;fillColor=none;align=left;verticalAlign=top;spacingLeft=4;spacingRight=4;overflow=hidden;rotatable=0;points=[[0,0.5],[1,0.5]];portConstraint=eastwest;whiteSpace=wrap;html=1;" parent="cc7sxFCVyo9TV1B_5zIe-248" vertex="1">
          <mxGeometry y="112" width="360" height="26" as="geometry" />
        </mxCell>
        <mxCell id="cc7sxFCVyo9TV1B_5zIe-254" value="+mergeWith(command: ICommand)" style="text;strokeColor=none;fillColor=none;align=left;verticalAlign=top;spacingLeft=4;spacingRight=4;overflow=hidden;rotatable=0;points=[[0,0.5],[1,0.5]];portConstraint=eastwest;whiteSpace=wrap;html=1;" parent="cc7sxFCVyo9TV1B_5zIe-248" vertex="1">
          <mxGeometry y="138" width="360" height="26" as="geometry" />
        </mxCell>
        <mxCell id="cc7sxFCVyo9TV1B_5zIe-256" value="AbstractCommand" style="swimlane;fontStyle=1;align=center;verticalAlign=top;childLayout=stackLayout;horizontal=1;startSize=26;horizontalStack=0;resizeParent=1;resizeParentMax=0;resizeLast=0;collapsible=1;marginBottom=0;whiteSpace=wrap;html=1;" parent="1" vertex="1">
          <mxGeometry x="-730" y="1490" width="360" height="242" as="geometry" />
        </mxCell>
        <mxCell id="cc7sxFCVyo9TV1B_5zIe-263" value="- executed: boolean" style="text;strokeColor=none;fillColor=none;align=left;verticalAlign=top;spacingLeft=4;spacingRight=4;overflow=hidden;rotatable=0;points=[[0,0.5],[1,0.5]];portConstraint=eastwest;whiteSpace=wrap;html=1;" parent="cc7sxFCVyo9TV1B_5zIe-256" vertex="1">
          <mxGeometry y="26" width="360" height="26" as="geometry" />
        </mxCell>
        <mxCell id="cc7sxFCVyo9TV1B_5zIe-257" value="" style="line;strokeWidth=1;fillColor=none;align=left;verticalAlign=middle;spacingTop=-1;spacingLeft=3;spacingRight=3;rotatable=0;labelPosition=right;points=[];portConstraint=eastwest;strokeColor=inherit;" parent="cc7sxFCVyo9TV1B_5zIe-256" vertex="1">
          <mxGeometry y="52" width="360" height="8" as="geometry" />
        </mxCell>
        <mxCell id="cc7sxFCVyo9TV1B_5zIe-258" value="+execute()" style="text;strokeColor=none;fillColor=none;align=left;verticalAlign=top;spacingLeft=4;spacingRight=4;overflow=hidden;rotatable=0;points=[[0,0.5],[1,0.5]];portConstraint=eastwest;whiteSpace=wrap;html=1;" parent="cc7sxFCVyo9TV1B_5zIe-256" vertex="1">
          <mxGeometry y="60" width="360" height="26" as="geometry" />
        </mxCell>
        <mxCell id="cc7sxFCVyo9TV1B_5zIe-259" value="+unexecute()" style="text;strokeColor=none;fillColor=none;align=left;verticalAlign=top;spacingLeft=4;spacingRight=4;overflow=hidden;rotatable=0;points=[[0,0.5],[1,0.5]];portConstraint=eastwest;whiteSpace=wrap;html=1;" parent="cc7sxFCVyo9TV1B_5zIe-256" vertex="1">
          <mxGeometry y="86" width="360" height="26" as="geometry" />
        </mxCell>
        <mxCell id="cc7sxFCVyo9TV1B_5zIe-260" value="+destroy()" style="text;strokeColor=none;fillColor=none;align=left;verticalAlign=top;spacingLeft=4;spacingRight=4;overflow=hidden;rotatable=0;points=[[0,0.5],[1,0.5]];portConstraint=eastwest;whiteSpace=wrap;html=1;" parent="cc7sxFCVyo9TV1B_5zIe-256" vertex="1">
          <mxGeometry y="112" width="360" height="26" as="geometry" />
        </mxCell>
        <mxCell id="cc7sxFCVyo9TV1B_5zIe-261" value="+canMergeWith(command: ICommand) : : boolean" style="text;strokeColor=none;fillColor=none;align=left;verticalAlign=top;spacingLeft=4;spacingRight=4;overflow=hidden;rotatable=0;points=[[0,0.5],[1,0.5]];portConstraint=eastwest;whiteSpace=wrap;html=1;" parent="cc7sxFCVyo9TV1B_5zIe-256" vertex="1">
          <mxGeometry y="138" width="360" height="26" as="geometry" />
        </mxCell>
        <mxCell id="cc7sxFCVyo9TV1B_5zIe-262" value="+mergeWith(command: ICommand)" style="text;strokeColor=none;fillColor=none;align=left;verticalAlign=top;spacingLeft=4;spacingRight=4;overflow=hidden;rotatable=0;points=[[0,0.5],[1,0.5]];portConstraint=eastwest;whiteSpace=wrap;html=1;" parent="cc7sxFCVyo9TV1B_5zIe-256" vertex="1">
          <mxGeometry y="164" width="360" height="26" as="geometry" />
        </mxCell>
        <mxCell id="cc7sxFCVyo9TV1B_5zIe-264" value="#doExecute()" style="text;strokeColor=none;fillColor=none;align=left;verticalAlign=top;spacingLeft=4;spacingRight=4;overflow=hidden;rotatable=0;points=[[0,0.5],[1,0.5]];portConstraint=eastwest;whiteSpace=wrap;html=1;" parent="cc7sxFCVyo9TV1B_5zIe-256" vertex="1">
          <mxGeometry y="190" width="360" height="26" as="geometry" />
        </mxCell>
        <mxCell id="cc7sxFCVyo9TV1B_5zIe-265" value="#doUnexecute()" style="text;strokeColor=none;fillColor=none;align=left;verticalAlign=top;spacingLeft=4;spacingRight=4;overflow=hidden;rotatable=0;points=[[0,0.5],[1,0.5]];portConstraint=eastwest;whiteSpace=wrap;html=1;" parent="cc7sxFCVyo9TV1B_5zIe-256" vertex="1">
          <mxGeometry y="216" width="360" height="26" as="geometry" />
        </mxCell>
        <mxCell id="cc7sxFCVyo9TV1B_5zIe-266" value="InsertArtObjectCommand" style="swimlane;fontStyle=1;align=center;verticalAlign=top;childLayout=stackLayout;horizontal=1;startSize=26;horizontalStack=0;resizeParent=1;resizeParentMax=0;resizeLast=0;collapsible=1;marginBottom=0;whiteSpace=wrap;html=1;" parent="1" vertex="1">
          <mxGeometry x="-50" y="1070" width="360" height="138" as="geometry" />
        </mxCell>
        <mxCell id="cc7sxFCVyo9TV1B_5zIe-267" value="- insertedShapeId: ?string" style="text;strokeColor=none;fillColor=none;align=left;verticalAlign=top;spacingLeft=4;spacingRight=4;overflow=hidden;rotatable=0;points=[[0,0.5],[1,0.5]];portConstraint=eastwest;whiteSpace=wrap;html=1;" parent="cc7sxFCVyo9TV1B_5zIe-266" vertex="1">
          <mxGeometry y="26" width="360" height="26" as="geometry" />
        </mxCell>
        <mxCell id="cc7sxFCVyo9TV1B_5zIe-268" value="" style="line;strokeWidth=1;fillColor=none;align=left;verticalAlign=middle;spacingTop=-1;spacingLeft=3;spacingRight=3;rotatable=0;labelPosition=right;points=[];portConstraint=eastwest;strokeColor=inherit;" parent="cc7sxFCVyo9TV1B_5zIe-266" vertex="1">
          <mxGeometry y="52" width="360" height="8" as="geometry" />
        </mxCell>
        <mxCell id="cc7sxFCVyo9TV1B_5zIe-269" value="+doExecute()" style="text;strokeColor=none;fillColor=none;align=left;verticalAlign=top;spacingLeft=4;spacingRight=4;overflow=hidden;rotatable=0;points=[[0,0.5],[1,0.5]];portConstraint=eastwest;whiteSpace=wrap;html=1;" parent="cc7sxFCVyo9TV1B_5zIe-266" vertex="1">
          <mxGeometry y="60" width="360" height="26" as="geometry" />
        </mxCell>
        <mxCell id="cc7sxFCVyo9TV1B_5zIe-270" value="+doUnexecute()" style="text;strokeColor=none;fillColor=none;align=left;verticalAlign=top;spacingLeft=4;spacingRight=4;overflow=hidden;rotatable=0;points=[[0,0.5],[1,0.5]];portConstraint=eastwest;whiteSpace=wrap;html=1;" parent="cc7sxFCVyo9TV1B_5zIe-266" vertex="1">
          <mxGeometry y="86" width="360" height="26" as="geometry" />
        </mxCell>
        <mxCell id="cc7sxFCVyo9TV1B_5zIe-271" value="+destroy()" style="text;strokeColor=none;fillColor=none;align=left;verticalAlign=top;spacingLeft=4;spacingRight=4;overflow=hidden;rotatable=0;points=[[0,0.5],[1,0.5]];portConstraint=eastwest;whiteSpace=wrap;html=1;" parent="cc7sxFCVyo9TV1B_5zIe-266" vertex="1">
          <mxGeometry y="112" width="360" height="26" as="geometry" />
        </mxCell>
        <mxCell id="cc7sxFCVyo9TV1B_5zIe-276" value="InsertImageObjectCommand" style="swimlane;fontStyle=1;align=center;verticalAlign=top;childLayout=stackLayout;horizontal=1;startSize=26;horizontalStack=0;resizeParent=1;resizeParentMax=0;resizeLast=0;collapsible=1;marginBottom=0;whiteSpace=wrap;html=1;" parent="1" vertex="1">
          <mxGeometry x="-450" y="1070" width="360" height="190" as="geometry" />
        </mxCell>
        <mxCell id="cc7sxFCVyo9TV1B_5zIe-277" value="- insertedShapeId: ?string" style="text;strokeColor=none;fillColor=none;align=left;verticalAlign=top;spacingLeft=4;spacingRight=4;overflow=hidden;rotatable=0;points=[[0,0.5],[1,0.5]];portConstraint=eastwest;whiteSpace=wrap;html=1;" parent="cc7sxFCVyo9TV1B_5zIe-276" vertex="1">
          <mxGeometry y="26" width="360" height="26" as="geometry" />
        </mxCell>
        <mxCell id="cc7sxFCVyo9TV1B_5zIe-282" value="- shouldDelete: boolean" style="text;strokeColor=none;fillColor=none;align=left;verticalAlign=top;spacingLeft=4;spacingRight=4;overflow=hidden;rotatable=0;points=[[0,0.5],[1,0.5]];portConstraint=eastwest;whiteSpace=wrap;html=1;" parent="cc7sxFCVyo9TV1B_5zIe-276" vertex="1">
          <mxGeometry y="52" width="360" height="26" as="geometry" />
        </mxCell>
        <mxCell id="cc7sxFCVyo9TV1B_5zIe-283" value="- data: ?string" style="text;strokeColor=none;fillColor=none;align=left;verticalAlign=top;spacingLeft=4;spacingRight=4;overflow=hidden;rotatable=0;points=[[0,0.5],[1,0.5]];portConstraint=eastwest;whiteSpace=wrap;html=1;" parent="cc7sxFCVyo9TV1B_5zIe-276" vertex="1">
          <mxGeometry y="78" width="360" height="26" as="geometry" />
        </mxCell>
        <mxCell id="cc7sxFCVyo9TV1B_5zIe-278" value="" style="line;strokeWidth=1;fillColor=none;align=left;verticalAlign=middle;spacingTop=-1;spacingLeft=3;spacingRight=3;rotatable=0;labelPosition=right;points=[];portConstraint=eastwest;strokeColor=inherit;" parent="cc7sxFCVyo9TV1B_5zIe-276" vertex="1">
          <mxGeometry y="104" width="360" height="8" as="geometry" />
        </mxCell>
        <mxCell id="cc7sxFCVyo9TV1B_5zIe-279" value="+doExecute()" style="text;strokeColor=none;fillColor=none;align=left;verticalAlign=top;spacingLeft=4;spacingRight=4;overflow=hidden;rotatable=0;points=[[0,0.5],[1,0.5]];portConstraint=eastwest;whiteSpace=wrap;html=1;" parent="cc7sxFCVyo9TV1B_5zIe-276" vertex="1">
          <mxGeometry y="112" width="360" height="26" as="geometry" />
        </mxCell>
        <mxCell id="cc7sxFCVyo9TV1B_5zIe-280" value="+doUnexecute()" style="text;strokeColor=none;fillColor=none;align=left;verticalAlign=top;spacingLeft=4;spacingRight=4;overflow=hidden;rotatable=0;points=[[0,0.5],[1,0.5]];portConstraint=eastwest;whiteSpace=wrap;html=1;" parent="cc7sxFCVyo9TV1B_5zIe-276" vertex="1">
          <mxGeometry y="138" width="360" height="26" as="geometry" />
        </mxCell>
        <mxCell id="cc7sxFCVyo9TV1B_5zIe-281" value="+destroy()" style="text;strokeColor=none;fillColor=none;align=left;verticalAlign=top;spacingLeft=4;spacingRight=4;overflow=hidden;rotatable=0;points=[[0,0.5],[1,0.5]];portConstraint=eastwest;whiteSpace=wrap;html=1;" parent="cc7sxFCVyo9TV1B_5zIe-276" vertex="1">
          <mxGeometry y="164" width="360" height="26" as="geometry" />
        </mxCell>
        <mxCell id="cc7sxFCVyo9TV1B_5zIe-284" value="UpdateShapeSizeAndPositionCommand" style="swimlane;fontStyle=1;align=center;verticalAlign=top;childLayout=stackLayout;horizontal=1;startSize=26;horizontalStack=0;resizeParent=1;resizeParentMax=0;resizeLast=0;collapsible=1;marginBottom=0;whiteSpace=wrap;html=1;" parent="1" vertex="1">
          <mxGeometry x="-860" y="1070" width="360" height="164" as="geometry" />
        </mxCell>
        <mxCell id="cc7sxFCVyo9TV1B_5zIe-285" value="- oldSize: ?ShapeSize" style="text;strokeColor=none;fillColor=none;align=left;verticalAlign=top;spacingLeft=4;spacingRight=4;overflow=hidden;rotatable=0;points=[[0,0.5],[1,0.5]];portConstraint=eastwest;whiteSpace=wrap;html=1;" parent="cc7sxFCVyo9TV1B_5zIe-284" vertex="1">
          <mxGeometry y="26" width="360" height="26" as="geometry" />
        </mxCell>
        <mxCell id="cc7sxFCVyo9TV1B_5zIe-286" value="- oldPosition: ?ShapePosition" style="text;strokeColor=none;fillColor=none;align=left;verticalAlign=top;spacingLeft=4;spacingRight=4;overflow=hidden;rotatable=0;points=[[0,0.5],[1,0.5]];portConstraint=eastwest;whiteSpace=wrap;html=1;" parent="cc7sxFCVyo9TV1B_5zIe-284" vertex="1">
          <mxGeometry y="52" width="360" height="26" as="geometry" />
        </mxCell>
        <mxCell id="cc7sxFCVyo9TV1B_5zIe-288" value="" style="line;strokeWidth=1;fillColor=none;align=left;verticalAlign=middle;spacingTop=-1;spacingLeft=3;spacingRight=3;rotatable=0;labelPosition=right;points=[];portConstraint=eastwest;strokeColor=inherit;" parent="cc7sxFCVyo9TV1B_5zIe-284" vertex="1">
          <mxGeometry y="78" width="360" height="8" as="geometry" />
        </mxCell>
        <mxCell id="cc7sxFCVyo9TV1B_5zIe-289" value="+doExecute()" style="text;strokeColor=none;fillColor=none;align=left;verticalAlign=top;spacingLeft=4;spacingRight=4;overflow=hidden;rotatable=0;points=[[0,0.5],[1,0.5]];portConstraint=eastwest;whiteSpace=wrap;html=1;" parent="cc7sxFCVyo9TV1B_5zIe-284" vertex="1">
          <mxGeometry y="86" width="360" height="26" as="geometry" />
        </mxCell>
        <mxCell id="cc7sxFCVyo9TV1B_5zIe-290" value="+doUnexecute()" style="text;strokeColor=none;fillColor=none;align=left;verticalAlign=top;spacingLeft=4;spacingRight=4;overflow=hidden;rotatable=0;points=[[0,0.5],[1,0.5]];portConstraint=eastwest;whiteSpace=wrap;html=1;" parent="cc7sxFCVyo9TV1B_5zIe-284" vertex="1">
          <mxGeometry y="112" width="360" height="26" as="geometry" />
        </mxCell>
        <mxCell id="cc7sxFCVyo9TV1B_5zIe-291" value="+destroy()" style="text;strokeColor=none;fillColor=none;align=left;verticalAlign=top;spacingLeft=4;spacingRight=4;overflow=hidden;rotatable=0;points=[[0,0.5],[1,0.5]];portConstraint=eastwest;whiteSpace=wrap;html=1;" parent="cc7sxFCVyo9TV1B_5zIe-284" vertex="1">
          <mxGeometry y="138" width="360" height="26" as="geometry" />
        </mxCell>
        <mxCell id="cc7sxFCVyo9TV1B_5zIe-292" value="RemoveShapeCommand" style="swimlane;fontStyle=1;align=center;verticalAlign=top;childLayout=stackLayout;horizontal=1;startSize=26;horizontalStack=0;resizeParent=1;resizeParentMax=0;resizeLast=0;collapsible=1;marginBottom=0;whiteSpace=wrap;html=1;" parent="1" vertex="1">
          <mxGeometry x="-1270" y="1076" width="360" height="138" as="geometry" />
        </mxCell>
        <mxCell id="cc7sxFCVyo9TV1B_5zIe-293" value="- shape: ?BaseShape" style="text;strokeColor=none;fillColor=none;align=left;verticalAlign=top;spacingLeft=4;spacingRight=4;overflow=hidden;rotatable=0;points=[[0,0.5],[1,0.5]];portConstraint=eastwest;whiteSpace=wrap;html=1;" parent="cc7sxFCVyo9TV1B_5zIe-292" vertex="1">
          <mxGeometry y="26" width="360" height="26" as="geometry" />
        </mxCell>
        <mxCell id="cc7sxFCVyo9TV1B_5zIe-295" value="" style="line;strokeWidth=1;fillColor=none;align=left;verticalAlign=middle;spacingTop=-1;spacingLeft=3;spacingRight=3;rotatable=0;labelPosition=right;points=[];portConstraint=eastwest;strokeColor=inherit;" parent="cc7sxFCVyo9TV1B_5zIe-292" vertex="1">
          <mxGeometry y="52" width="360" height="8" as="geometry" />
        </mxCell>
        <mxCell id="cc7sxFCVyo9TV1B_5zIe-296" value="+doExecute()" style="text;strokeColor=none;fillColor=none;align=left;verticalAlign=top;spacingLeft=4;spacingRight=4;overflow=hidden;rotatable=0;points=[[0,0.5],[1,0.5]];portConstraint=eastwest;whiteSpace=wrap;html=1;" parent="cc7sxFCVyo9TV1B_5zIe-292" vertex="1">
          <mxGeometry y="60" width="360" height="26" as="geometry" />
        </mxCell>
        <mxCell id="cc7sxFCVyo9TV1B_5zIe-297" value="+doUnexecute()" style="text;strokeColor=none;fillColor=none;align=left;verticalAlign=top;spacingLeft=4;spacingRight=4;overflow=hidden;rotatable=0;points=[[0,0.5],[1,0.5]];portConstraint=eastwest;whiteSpace=wrap;html=1;" parent="cc7sxFCVyo9TV1B_5zIe-292" vertex="1">
          <mxGeometry y="86" width="360" height="26" as="geometry" />
        </mxCell>
        <mxCell id="cc7sxFCVyo9TV1B_5zIe-298" value="+destroy()" style="text;strokeColor=none;fillColor=none;align=left;verticalAlign=top;spacingLeft=4;spacingRight=4;overflow=hidden;rotatable=0;points=[[0,0.5],[1,0.5]];portConstraint=eastwest;whiteSpace=wrap;html=1;" parent="cc7sxFCVyo9TV1B_5zIe-292" vertex="1">
          <mxGeometry y="112" width="360" height="26" as="geometry" />
        </mxCell>
        <mxCell id="cc7sxFCVyo9TV1B_5zIe-303" value="" style="endArrow=block;dashed=1;endFill=0;endSize=12;html=1;rounded=0;entryX=0.5;entryY=0;entryDx=0;entryDy=0;exitX=0.494;exitY=1.192;exitDx=0;exitDy=0;exitPerimeter=0;" parent="1" source="cc7sxFCVyo9TV1B_5zIe-265" target="cc7sxFCVyo9TV1B_5zIe-248" edge="1">
          <mxGeometry width="160" relative="1" as="geometry">
            <mxPoint x="-730" y="1740" as="sourcePoint" />
            <mxPoint x="-570" y="1740" as="targetPoint" />
          </mxGeometry>
        </mxCell>
        <mxCell id="cc7sxFCVyo9TV1B_5zIe-306" value="Use" style="endArrow=open;endSize=12;dashed=1;html=1;rounded=0;entryX=0;entryY=0.5;entryDx=0;entryDy=0;exitX=1;exitY=0.5;exitDx=0;exitDy=0;" parent="1" source="cc7sxFCVyo9TV1B_5zIe-172" target="cc7sxFCVyo9TV1B_5zIe-162" edge="1">
          <mxGeometry width="160" relative="1" as="geometry">
            <mxPoint x="870" y="1740" as="sourcePoint" />
            <mxPoint x="1030" y="1740" as="targetPoint" />
          </mxGeometry>
        </mxCell>
        <mxCell id="cc7sxFCVyo9TV1B_5zIe-311" value="" style="endArrow=block;dashed=1;endFill=0;endSize=12;html=1;rounded=0;entryX=0;entryY=0.5;entryDx=0;entryDy=0;exitX=1;exitY=0.5;exitDx=0;exitDy=0;" parent="1" source="cc7sxFCVyo9TV1B_5zIe-144" target="cc7sxFCVyo9TV1B_5zIe-195" edge="1">
          <mxGeometry width="160" relative="1" as="geometry">
            <mxPoint x="1410" y="1830" as="sourcePoint" />
            <mxPoint x="1570" y="1830" as="targetPoint" />
          </mxGeometry>
        </mxCell>
        <mxCell id="cc7sxFCVyo9TV1B_5zIe-313" value="" style="endArrow=block;dashed=1;endFill=0;endSize=12;html=1;rounded=0;entryX=0.161;entryY=0.001;entryDx=0;entryDy=0;entryPerimeter=0;exitX=1.009;exitY=1.082;exitDx=0;exitDy=0;exitPerimeter=0;" parent="1" source="cc7sxFCVyo9TV1B_5zIe-165" target="cc7sxFCVyo9TV1B_5zIe-226" edge="1">
          <mxGeometry width="160" relative="1" as="geometry">
            <mxPoint x="1740" y="2140" as="sourcePoint" />
            <mxPoint x="1900" y="2140" as="targetPoint" />
          </mxGeometry>
        </mxCell>
        <mxCell id="cc7sxFCVyo9TV1B_5zIe-322" value="Use" style="endArrow=open;endSize=12;dashed=1;html=1;rounded=0;exitX=0;exitY=0;exitDx=0;exitDy=0;entryX=0.465;entryY=0.012;entryDx=0;entryDy=0;entryPerimeter=0;" parent="1" source="cc7sxFCVyo9TV1B_5zIe-1" target="cc7sxFCVyo9TV1B_5zIe-79" edge="1">
          <mxGeometry width="160" relative="1" as="geometry">
            <mxPoint x="680" y="510" as="sourcePoint" />
            <mxPoint x="840" y="510" as="targetPoint" />
          </mxGeometry>
        </mxCell>
        <mxCell id="cc7sxFCVyo9TV1B_5zIe-324" value="Use" style="endArrow=open;endSize=12;dashed=1;html=1;rounded=0;entryX=1;entryY=0.5;entryDx=0;entryDy=0;exitX=0.945;exitY=1.115;exitDx=0;exitDy=0;exitPerimeter=0;" parent="1" source="cc7sxFCVyo9TV1B_5zIe-78" target="cc7sxFCVyo9TV1B_5zIe-107" edge="1">
          <mxGeometry width="160" relative="1" as="geometry">
            <mxPoint x="1570" y="517" as="sourcePoint" />
            <mxPoint x="1915" y="640" as="targetPoint" />
            <Array as="points">
              <mxPoint x="1740" y="610" />
              <mxPoint x="1730" y="740" />
            </Array>
          </mxGeometry>
        </mxCell>
        <mxCell id="cc7sxFCVyo9TV1B_5zIe-330" value="Use" style="endArrow=open;endSize=12;dashed=1;html=1;rounded=0;exitX=0;exitY=0.5;exitDx=0;exitDy=0;entryX=1;entryY=0;entryDx=0;entryDy=0;" parent="1" source="cc7sxFCVyo9TV1B_5zIe-225" target="cc7sxFCVyo9TV1B_5zIe-226" edge="1">
          <mxGeometry width="160" relative="1" as="geometry">
            <mxPoint x="1600" y="1850" as="sourcePoint" />
            <mxPoint x="1760" y="1850" as="targetPoint" />
          </mxGeometry>
        </mxCell>
        <mxCell id="fQiB4-pQCbLZUptm6k3T-1" value="Extends" style="endArrow=block;endSize=16;endFill=0;html=1;rounded=0;" edge="1" parent="1" source="cc7sxFCVyo9TV1B_5zIe-192" target="cc7sxFCVyo9TV1B_5zIe-213">
          <mxGeometry width="160" relative="1" as="geometry">
            <mxPoint x="1390" y="1810" as="sourcePoint" />
            <mxPoint x="1550" y="1810" as="targetPoint" />
          </mxGeometry>
        </mxCell>
        <mxCell id="fQiB4-pQCbLZUptm6k3T-3" value="Extends" style="endArrow=block;endSize=16;endFill=0;html=1;rounded=0;" edge="1" parent="1" source="cc7sxFCVyo9TV1B_5zIe-186" target="cc7sxFCVyo9TV1B_5zIe-159">
          <mxGeometry width="160" relative="1" as="geometry">
            <mxPoint x="2077" y="1770" as="sourcePoint" />
            <mxPoint x="2198" y="1890" as="targetPoint" />
          </mxGeometry>
        </mxCell>
        <mxCell id="fQiB4-pQCbLZUptm6k3T-4" value="Extends" style="endArrow=block;endSize=16;endFill=0;html=1;rounded=0;" edge="1" parent="1" source="cc7sxFCVyo9TV1B_5zIe-183" target="cc7sxFCVyo9TV1B_5zIe-159">
          <mxGeometry width="160" relative="1" as="geometry">
            <mxPoint x="1444" y="2310" as="sourcePoint" />
            <mxPoint x="1324" y="2216" as="targetPoint" />
          </mxGeometry>
        </mxCell>
        <mxCell id="fQiB4-pQCbLZUptm6k3T-5" value="Extends" style="endArrow=block;endSize=16;endFill=0;html=1;rounded=0;" edge="1" parent="1" source="cc7sxFCVyo9TV1B_5zIe-180" target="cc7sxFCVyo9TV1B_5zIe-159">
          <mxGeometry width="160" relative="1" as="geometry">
            <mxPoint x="1256" y="2310" as="sourcePoint" />
            <mxPoint x="1223" y="2216" as="targetPoint" />
          </mxGeometry>
        </mxCell>
        <mxCell id="fQiB4-pQCbLZUptm6k3T-6" value="Extends" style="endArrow=block;endSize=16;endFill=0;html=1;rounded=0;" edge="1" parent="1" source="cc7sxFCVyo9TV1B_5zIe-177" target="cc7sxFCVyo9TV1B_5zIe-159">
          <mxGeometry width="160" relative="1" as="geometry">
            <mxPoint x="1047" y="2310" as="sourcePoint" />
            <mxPoint x="1111" y="2216" as="targetPoint" />
          </mxGeometry>
        </mxCell>
        <mxCell id="fQiB4-pQCbLZUptm6k3T-7" value="" style="endArrow=diamondThin;endFill=1;endSize=24;html=1;rounded=0;" edge="1" parent="1" source="cc7sxFCVyo9TV1B_5zIe-159" target="cc7sxFCVyo9TV1B_5zIe-138">
          <mxGeometry width="160" relative="1" as="geometry">
            <mxPoint x="1020" y="1950" as="sourcePoint" />
            <mxPoint x="1180" y="1950" as="targetPoint" />
          </mxGeometry>
        </mxCell>
        <mxCell id="fQiB4-pQCbLZUptm6k3T-8" value="" style="endArrow=diamondThin;endFill=1;endSize=24;html=1;rounded=0;" edge="1" parent="1" source="cc7sxFCVyo9TV1B_5zIe-239" target="cc7sxFCVyo9TV1B_5zIe-138">
          <mxGeometry width="160" relative="1" as="geometry">
            <mxPoint x="1191" y="2000" as="sourcePoint" />
            <mxPoint x="1200" y="1848" as="targetPoint" />
          </mxGeometry>
        </mxCell>
        <mxCell id="fQiB4-pQCbLZUptm6k3T-9" value="" style="endArrow=diamondThin;endFill=0;endSize=24;html=1;rounded=0;" edge="1" parent="1" source="cc7sxFCVyo9TV1B_5zIe-248" target="cc7sxFCVyo9TV1B_5zIe-239">
          <mxGeometry width="160" relative="1" as="geometry">
            <mxPoint x="140" y="1780" as="sourcePoint" />
            <mxPoint x="300" y="1780" as="targetPoint" />
          </mxGeometry>
        </mxCell>
        <mxCell id="fQiB4-pQCbLZUptm6k3T-10" value="Extends" style="endArrow=block;endSize=16;endFill=0;html=1;rounded=0;" edge="1" parent="1" source="cc7sxFCVyo9TV1B_5zIe-276" target="cc7sxFCVyo9TV1B_5zIe-256">
          <mxGeometry width="160" relative="1" as="geometry">
            <mxPoint x="-380" y="1490" as="sourcePoint" />
            <mxPoint x="-220" y="1490" as="targetPoint" />
          </mxGeometry>
        </mxCell>
        <mxCell id="fQiB4-pQCbLZUptm6k3T-11" value="Extends" style="endArrow=block;endSize=16;endFill=0;html=1;rounded=0;" edge="1" parent="1" source="cc7sxFCVyo9TV1B_5zIe-266" target="cc7sxFCVyo9TV1B_5zIe-256">
          <mxGeometry width="160" relative="1" as="geometry">
            <mxPoint x="-320" y="1270" as="sourcePoint" />
            <mxPoint x="-464" y="1500" as="targetPoint" />
          </mxGeometry>
        </mxCell>
        <mxCell id="fQiB4-pQCbLZUptm6k3T-12" value="Extends" style="endArrow=block;endSize=16;endFill=0;html=1;rounded=0;" edge="1" parent="1" source="cc7sxFCVyo9TV1B_5zIe-284" target="cc7sxFCVyo9TV1B_5zIe-256">
          <mxGeometry width="160" relative="1" as="geometry">
            <mxPoint x="41" y="1218" as="sourcePoint" />
            <mxPoint x="-366" y="1500" as="targetPoint" />
          </mxGeometry>
        </mxCell>
        <mxCell id="fQiB4-pQCbLZUptm6k3T-14" value="Extends" style="endArrow=block;endSize=16;endFill=0;html=1;rounded=0;" edge="1" parent="1" source="cc7sxFCVyo9TV1B_5zIe-292" target="cc7sxFCVyo9TV1B_5zIe-256">
          <mxGeometry width="160" relative="1" as="geometry">
            <mxPoint x="-647" y="1244" as="sourcePoint" />
            <mxPoint x="-574" y="1500" as="targetPoint" />
          </mxGeometry>
        </mxCell>
        <mxCell id="fQiB4-pQCbLZUptm6k3T-15" value="" style="endArrow=diamondThin;endFill=0;endSize=24;html=1;rounded=0;" edge="1" parent="1" source="cc7sxFCVyo9TV1B_5zIe-192" target="cc7sxFCVyo9TV1B_5zIe-114">
          <mxGeometry width="160" relative="1" as="geometry">
            <mxPoint x="1250" y="1410" as="sourcePoint" />
            <mxPoint x="1410" y="1410" as="targetPoint" />
          </mxGeometry>
        </mxCell>
        <mxCell id="fQiB4-pQCbLZUptm6k3T-16" value="" style="endArrow=diamondThin;endFill=0;endSize=24;html=1;rounded=0;" edge="1" parent="1" source="cc7sxFCVyo9TV1B_5zIe-192" target="cc7sxFCVyo9TV1B_5zIe-123">
          <mxGeometry width="160" relative="1" as="geometry">
            <mxPoint x="1854" y="1450" as="sourcePoint" />
            <mxPoint x="1791" y="1288" as="targetPoint" />
          </mxGeometry>
        </mxCell>
        <mxCell id="fQiB4-pQCbLZUptm6k3T-17" value="" style="endArrow=diamondThin;endFill=0;endSize=24;html=1;rounded=0;" edge="1" parent="1" source="cc7sxFCVyo9TV1B_5zIe-123" target="cc7sxFCVyo9TV1B_5zIe-79">
          <mxGeometry width="160" relative="1" as="geometry">
            <mxPoint x="1585" y="1455" as="sourcePoint" />
            <mxPoint x="810" y="1174" as="targetPoint" />
          </mxGeometry>
        </mxCell>
        <mxCell id="fQiB4-pQCbLZUptm6k3T-18" value="" style="endArrow=diamondThin;endFill=0;endSize=24;html=1;rounded=0;exitX=0.5;exitY=0;exitDx=0;exitDy=0;" edge="1" parent="1" source="cc7sxFCVyo9TV1B_5zIe-123" target="cc7sxFCVyo9TV1B_5zIe-1">
          <mxGeometry width="160" relative="1" as="geometry">
            <mxPoint x="551" y="940" as="sourcePoint" />
            <mxPoint x="479" y="726" as="targetPoint" />
            <Array as="points">
              <mxPoint x="690" y="500" />
            </Array>
          </mxGeometry>
        </mxCell>
        <mxCell id="fQiB4-pQCbLZUptm6k3T-19" value="" style="endArrow=diamondThin;endFill=0;endSize=24;html=1;rounded=0;" edge="1" parent="1" source="cc7sxFCVyo9TV1B_5zIe-123" target="cc7sxFCVyo9TV1B_5zIe-71">
          <mxGeometry width="160" relative="1" as="geometry">
            <mxPoint x="605" y="940" as="sourcePoint" />
            <mxPoint x="904" y="290" as="targetPoint" />
            <Array as="points">
              <mxPoint x="740" y="530" />
            </Array>
          </mxGeometry>
        </mxCell>
        <mxCell id="fQiB4-pQCbLZUptm6k3T-20" value="" style="endArrow=diamondThin;endFill=0;endSize=24;html=1;rounded=0;" edge="1" parent="1" source="cc7sxFCVyo9TV1B_5zIe-114" target="cc7sxFCVyo9TV1B_5zIe-105">
          <mxGeometry width="160" relative="1" as="geometry">
            <mxPoint x="551" y="940" as="sourcePoint" />
            <mxPoint x="479" y="726" as="targetPoint" />
          </mxGeometry>
        </mxCell>
        <mxCell id="fQiB4-pQCbLZUptm6k3T-21" value="" style="endArrow=diamondThin;endFill=0;endSize=24;html=1;rounded=0;" edge="1" parent="1" source="cc7sxFCVyo9TV1B_5zIe-114" target="cc7sxFCVyo9TV1B_5zIe-71">
          <mxGeometry width="160" relative="1" as="geometry">
            <mxPoint x="1705" y="1150" as="sourcePoint" />
            <mxPoint x="1579" y="1006" as="targetPoint" />
            <Array as="points">
              <mxPoint x="2150" y="520" />
            </Array>
          </mxGeometry>
        </mxCell>
        <mxCell id="fQiB4-pQCbLZUptm6k3T-22" value="" style="endArrow=diamondThin;endFill=0;endSize=24;html=1;rounded=0;" edge="1" parent="1" source="cc7sxFCVyo9TV1B_5zIe-213" target="cc7sxFCVyo9TV1B_5zIe-71">
          <mxGeometry width="160" relative="1" as="geometry">
            <mxPoint x="1805" y="1150" as="sourcePoint" />
            <mxPoint x="1570" y="455" as="targetPoint" />
            <Array as="points">
              <mxPoint x="2280" y="490" />
            </Array>
          </mxGeometry>
        </mxCell>
        <mxCell id="fQiB4-pQCbLZUptm6k3T-23" value="" style="endArrow=diamondThin;endFill=0;endSize=24;html=1;rounded=0;" edge="1" parent="1" source="cc7sxFCVyo9TV1B_5zIe-114" target="cc7sxFCVyo9TV1B_5zIe-1">
          <mxGeometry width="160" relative="1" as="geometry">
            <mxPoint x="1805" y="1150" as="sourcePoint" />
            <mxPoint x="1570" y="455" as="targetPoint" />
            <Array as="points">
              <mxPoint x="2260" y="440" />
            </Array>
          </mxGeometry>
        </mxCell>
        <mxCell id="fQiB4-pQCbLZUptm6k3T-24" value="" style="endArrow=diamondThin;endFill=0;endSize=24;html=1;rounded=0;" edge="1" parent="1" source="cc7sxFCVyo9TV1B_5zIe-213" target="cc7sxFCVyo9TV1B_5zIe-1">
          <mxGeometry width="160" relative="1" as="geometry">
            <mxPoint x="2353" y="1890" as="sourcePoint" />
            <mxPoint x="1570" y="447" as="targetPoint" />
            <Array as="points">
              <mxPoint x="2410" y="350" />
            </Array>
          </mxGeometry>
        </mxCell>
      </root>
    </mxGraphModel>
  </diagram>
  <diagram id="EAAW4Q420dt8W4suUDp7" name="Экзамен">
    <mxGraphModel dx="2897" dy="945" grid="1" gridSize="10" guides="1" tooltips="1" connect="1" arrows="1" fold="1" page="1" pageScale="1" pageWidth="827" pageHeight="1169" math="0" shadow="0">
      <root>
        <mxCell id="0" />
        <mxCell id="1" parent="0" />
        <mxCell id="ltMUggmxXTka8N3pyUDg-1" value="CanvasController" style="swimlane;fontStyle=1;align=center;verticalAlign=top;childLayout=stackLayout;horizontal=1;startSize=26;horizontalStack=0;resizeParent=1;resizeParentMax=0;resizeLast=0;collapsible=1;marginBottom=0;whiteSpace=wrap;html=1;" vertex="1" parent="1">
          <mxGeometry x="390" y="930" width="410" height="320" as="geometry" />
        </mxCell>
        <mxCell id="ltMUggmxXTka8N3pyUDg-2" value="- model: CanvasModel" style="text;strokeColor=none;fillColor=none;align=left;verticalAlign=top;spacingLeft=4;spacingRight=4;overflow=hidden;rotatable=0;points=[[0,0.5],[1,0.5]];portConstraint=eastwest;whiteSpace=wrap;html=1;" vertex="1" parent="ltMUggmxXTka8N3pyUDg-1">
          <mxGeometry y="26" width="410" height="26" as="geometry" />
        </mxCell>
        <mxCell id="ltMUggmxXTka8N3pyUDg-3" value="" style="line;strokeWidth=1;fillColor=none;align=left;verticalAlign=middle;spacingTop=-1;spacingLeft=3;spacingRight=3;rotatable=0;labelPosition=right;points=[];portConstraint=eastwest;strokeColor=inherit;" vertex="1" parent="ltMUggmxXTka8N3pyUDg-1">
          <mxGeometry y="52" width="410" height="8" as="geometry" />
        </mxCell>
        <mxCell id="ltMUggmxXTka8N3pyUDg-4" value="+addArtObject(type: ArtObjectType)" style="text;strokeColor=none;fillColor=none;align=left;verticalAlign=top;spacingLeft=4;spacingRight=4;overflow=hidden;rotatable=0;points=[[0,0.5],[1,0.5]];portConstraint=eastwest;whiteSpace=wrap;html=1;" vertex="1" parent="ltMUggmxXTka8N3pyUDg-1">
          <mxGeometry y="60" width="410" height="26" as="geometry" />
        </mxCell>
        <mxCell id="ltMUggmxXTka8N3pyUDg-5" value="+addImage(data: string)" style="text;strokeColor=none;fillColor=none;align=left;verticalAlign=top;spacingLeft=4;spacingRight=4;overflow=hidden;rotatable=0;points=[[0,0.5],[1,0.5]];portConstraint=eastwest;whiteSpace=wrap;html=1;" vertex="1" parent="ltMUggmxXTka8N3pyUDg-1">
          <mxGeometry y="86" width="410" height="26" as="geometry" />
        </mxCell>
        <mxCell id="ltMUggmxXTka8N3pyUDg-6" value="+removeShape(shapeId: string)" style="text;strokeColor=none;fillColor=none;align=left;verticalAlign=top;spacingLeft=4;spacingRight=4;overflow=hidden;rotatable=0;points=[[0,0.5],[1,0.5]];portConstraint=eastwest;whiteSpace=wrap;html=1;" vertex="1" parent="ltMUggmxXTka8N3pyUDg-1">
          <mxGeometry y="112" width="410" height="26" as="geometry" />
        </mxCell>
        <mxCell id="ltMUggmxXTka8N3pyUDg-7" value="+undo()" style="text;strokeColor=none;fillColor=none;align=left;verticalAlign=top;spacingLeft=4;spacingRight=4;overflow=hidden;rotatable=0;points=[[0,0.5],[1,0.5]];portConstraint=eastwest;whiteSpace=wrap;html=1;" vertex="1" parent="ltMUggmxXTka8N3pyUDg-1">
          <mxGeometry y="138" width="410" height="26" as="geometry" />
        </mxCell>
        <mxCell id="ltMUggmxXTka8N3pyUDg-8" value="+redo()" style="text;strokeColor=none;fillColor=none;align=left;verticalAlign=top;spacingLeft=4;spacingRight=4;overflow=hidden;rotatable=0;points=[[0,0.5],[1,0.5]];portConstraint=eastwest;whiteSpace=wrap;html=1;" vertex="1" parent="ltMUggmxXTka8N3pyUDg-1">
          <mxGeometry y="164" width="410" height="26" as="geometry" />
        </mxCell>
        <mxCell id="ltMUggmxXTka8N3pyUDg-9" value="+canUndo() : : boolean" style="text;strokeColor=none;fillColor=none;align=left;verticalAlign=top;spacingLeft=4;spacingRight=4;overflow=hidden;rotatable=0;points=[[0,0.5],[1,0.5]];portConstraint=eastwest;whiteSpace=wrap;html=1;" vertex="1" parent="ltMUggmxXTka8N3pyUDg-1">
          <mxGeometry y="190" width="410" height="26" as="geometry" />
        </mxCell>
        <mxCell id="ltMUggmxXTka8N3pyUDg-10" value="+canRedo() : : boolean" style="text;strokeColor=none;fillColor=none;align=left;verticalAlign=top;spacingLeft=4;spacingRight=4;overflow=hidden;rotatable=0;points=[[0,0.5],[1,0.5]];portConstraint=eastwest;whiteSpace=wrap;html=1;" vertex="1" parent="ltMUggmxXTka8N3pyUDg-1">
          <mxGeometry y="216" width="410" height="26" as="geometry" />
        </mxCell>
        <mxCell id="ltMUggmxXTka8N3pyUDg-11" value="+loadCanvasFromJson(jsonString: string)" style="text;strokeColor=none;fillColor=none;align=left;verticalAlign=top;spacingLeft=4;spacingRight=4;overflow=hidden;rotatable=0;points=[[0,0.5],[1,0.5]];portConstraint=eastwest;whiteSpace=wrap;html=1;" vertex="1" parent="ltMUggmxXTka8N3pyUDg-1">
          <mxGeometry y="242" width="410" height="26" as="geometry" />
        </mxCell>
        <mxCell id="ltMUggmxXTka8N3pyUDg-12" value="+addObserver(observer: ShapeChangeObserver) : : void" style="text;strokeColor=none;fillColor=none;align=left;verticalAlign=top;spacingLeft=4;spacingRight=4;overflow=hidden;rotatable=0;points=[[0,0.5],[1,0.5]];portConstraint=eastwest;whiteSpace=wrap;html=1;" vertex="1" parent="ltMUggmxXTka8N3pyUDg-1">
          <mxGeometry y="268" width="410" height="26" as="geometry" />
        </mxCell>
        <mxCell id="ltMUggmxXTka8N3pyUDg-13" value="+removeObserver(observer: ShapeChangeObserver) : : void" style="text;strokeColor=none;fillColor=none;align=left;verticalAlign=top;spacingLeft=4;spacingRight=4;overflow=hidden;rotatable=0;points=[[0,0.5],[1,0.5]];portConstraint=eastwest;whiteSpace=wrap;html=1;" vertex="1" parent="ltMUggmxXTka8N3pyUDg-1">
          <mxGeometry y="294" width="410" height="26" as="geometry" />
        </mxCell>
        <mxCell id="ltMUggmxXTka8N3pyUDg-14" value="AudioConverter" style="swimlane;fontStyle=1;align=center;verticalAlign=top;childLayout=stackLayout;horizontal=1;startSize=26;horizontalStack=0;resizeParent=1;resizeParentMax=0;resizeLast=0;collapsible=1;marginBottom=0;whiteSpace=wrap;html=1;" vertex="1" parent="1">
          <mxGeometry x="-245" y="1916" width="600" height="86" as="geometry" />
        </mxCell>
        <mxCell id="ltMUggmxXTka8N3pyUDg-83" value="&lt;div&gt;&lt;span style=&quot;background-color: initial;&quot;&gt;- IConvertLib convertLib&lt;/span&gt;&lt;/div&gt;&lt;div&gt;&lt;span style=&quot;background-color: initial;&quot;&gt;&lt;br&gt;&lt;/span&gt;&lt;/div&gt;" style="text;strokeColor=none;fillColor=none;align=left;verticalAlign=top;spacingLeft=4;spacingRight=4;overflow=hidden;rotatable=0;points=[[0,0.5],[1,0.5]];portConstraint=eastwest;whiteSpace=wrap;html=1;" vertex="1" parent="ltMUggmxXTka8N3pyUDg-14">
          <mxGeometry y="26" width="600" height="26" as="geometry" />
        </mxCell>
        <mxCell id="ltMUggmxXTka8N3pyUDg-15" value="" style="line;strokeWidth=1;fillColor=none;align=left;verticalAlign=middle;spacingTop=-1;spacingLeft=3;spacingRight=3;rotatable=0;labelPosition=right;points=[];portConstraint=eastwest;strokeColor=inherit;" vertex="1" parent="ltMUggmxXTka8N3pyUDg-14">
          <mxGeometry y="52" width="600" height="8" as="geometry" />
        </mxCell>
        <mxCell id="ltMUggmxXTka8N3pyUDg-16" value="&lt;div&gt;+convert(src: string, target: string, audioFormat: AudioFormat, progressObservable: ProgressObservable)&lt;/div&gt;" style="text;strokeColor=none;fillColor=none;align=left;verticalAlign=top;spacingLeft=4;spacingRight=4;overflow=hidden;rotatable=0;points=[[0,0.5],[1,0.5]];portConstraint=eastwest;whiteSpace=wrap;html=1;" vertex="1" parent="ltMUggmxXTka8N3pyUDg-14">
          <mxGeometry y="60" width="600" height="26" as="geometry" />
        </mxCell>
        <mxCell id="ltMUggmxXTka8N3pyUDg-20" value="&lt;i&gt;&amp;lt;&amp;lt;interface&amp;gt;&amp;gt;&lt;br&gt;IAudioConverter&lt;/i&gt;" style="swimlane;fontStyle=1;align=center;verticalAlign=top;childLayout=stackLayout;horizontal=1;startSize=40;horizontalStack=0;resizeParent=1;resizeParentMax=0;resizeLast=0;collapsible=1;marginBottom=0;whiteSpace=wrap;html=1;" vertex="1" parent="1">
          <mxGeometry x="-250" y="1700" width="610" height="74" as="geometry" />
        </mxCell>
        <mxCell id="ltMUggmxXTka8N3pyUDg-21" value="" style="line;strokeWidth=1;fillColor=none;align=left;verticalAlign=middle;spacingTop=-1;spacingLeft=3;spacingRight=3;rotatable=0;labelPosition=right;points=[];portConstraint=eastwest;strokeColor=inherit;" vertex="1" parent="ltMUggmxXTka8N3pyUDg-20">
          <mxGeometry y="40" width="610" height="8" as="geometry" />
        </mxCell>
        <mxCell id="ltMUggmxXTka8N3pyUDg-22" value="&lt;div&gt;+convert(src: string, target: string, audioFormat: AudioFormat, progressObservable: ProgressObservable)&lt;/div&gt;&lt;div&gt;&lt;br&gt;&lt;/div&gt;" style="text;strokeColor=none;fillColor=none;align=left;verticalAlign=top;spacingLeft=4;spacingRight=4;overflow=hidden;rotatable=0;points=[[0,0.5],[1,0.5]];portConstraint=eastwest;whiteSpace=wrap;html=1;" vertex="1" parent="ltMUggmxXTka8N3pyUDg-20">
          <mxGeometry y="48" width="610" height="26" as="geometry" />
        </mxCell>
        <mxCell id="ltMUggmxXTka8N3pyUDg-28" value="AudioFormat" style="swimlane;fontStyle=1;align=center;verticalAlign=top;childLayout=stackLayout;horizontal=1;startSize=26;horizontalStack=0;resizeParent=1;resizeParentMax=0;resizeLast=0;collapsible=1;marginBottom=0;whiteSpace=wrap;html=1;" vertex="1" parent="1">
          <mxGeometry x="-480" y="1900" width="120" height="86" as="geometry" />
        </mxCell>
        <mxCell id="ltMUggmxXTka8N3pyUDg-29" value="" style="line;strokeWidth=1;fillColor=none;align=left;verticalAlign=middle;spacingTop=-1;spacingLeft=3;spacingRight=3;rotatable=0;labelPosition=right;points=[];portConstraint=eastwest;strokeColor=inherit;" vertex="1" parent="ltMUggmxXTka8N3pyUDg-28">
          <mxGeometry y="26" width="120" height="8" as="geometry" />
        </mxCell>
        <mxCell id="ltMUggmxXTka8N3pyUDg-30" value="MP3" style="text;strokeColor=none;fillColor=none;align=left;verticalAlign=top;spacingLeft=4;spacingRight=4;overflow=hidden;rotatable=0;points=[[0,0.5],[1,0.5]];portConstraint=eastwest;whiteSpace=wrap;html=1;" vertex="1" parent="ltMUggmxXTka8N3pyUDg-28">
          <mxGeometry y="34" width="120" height="26" as="geometry" />
        </mxCell>
        <mxCell id="ltMUggmxXTka8N3pyUDg-31" value="WAV" style="text;strokeColor=none;fillColor=none;align=left;verticalAlign=top;spacingLeft=4;spacingRight=4;overflow=hidden;rotatable=0;points=[[0,0.5],[1,0.5]];portConstraint=eastwest;whiteSpace=wrap;html=1;" vertex="1" parent="ltMUggmxXTka8N3pyUDg-28">
          <mxGeometry y="60" width="120" height="26" as="geometry" />
        </mxCell>
        <mxCell id="ltMUggmxXTka8N3pyUDg-80" value="Use" style="endArrow=open;endSize=12;dashed=1;html=1;rounded=0;" edge="1" parent="1" source="ltMUggmxXTka8N3pyUDg-20" target="ltMUggmxXTka8N3pyUDg-28">
          <mxGeometry width="160" relative="1" as="geometry">
            <mxPoint x="670" y="2081" as="sourcePoint" />
            <mxPoint x="890" y="2119" as="targetPoint" />
          </mxGeometry>
        </mxCell>
        <mxCell id="ltMUggmxXTka8N3pyUDg-82" value="" style="endArrow=block;dashed=1;endFill=0;endSize=12;html=1;rounded=0;" edge="1" parent="1" source="ltMUggmxXTka8N3pyUDg-14" target="ltMUggmxXTka8N3pyUDg-20">
          <mxGeometry width="160" relative="1" as="geometry">
            <mxPoint x="-542" y="1747" as="sourcePoint" />
            <mxPoint x="-270" y="1930" as="targetPoint" />
          </mxGeometry>
        </mxCell>
        <mxCell id="ltMUggmxXTka8N3pyUDg-84" value="AudioConverterFactory" style="swimlane;fontStyle=1;align=center;verticalAlign=top;childLayout=stackLayout;horizontal=1;startSize=26;horizontalStack=0;resizeParent=1;resizeParentMax=0;resizeLast=0;collapsible=1;marginBottom=0;whiteSpace=wrap;html=1;" vertex="1" parent="1">
          <mxGeometry x="390" y="1916" width="600" height="60" as="geometry" />
        </mxCell>
        <mxCell id="ltMUggmxXTka8N3pyUDg-86" value="" style="line;strokeWidth=1;fillColor=none;align=left;verticalAlign=middle;spacingTop=-1;spacingLeft=3;spacingRight=3;rotatable=0;labelPosition=right;points=[];portConstraint=eastwest;strokeColor=inherit;" vertex="1" parent="ltMUggmxXTka8N3pyUDg-84">
          <mxGeometry y="26" width="600" height="8" as="geometry" />
        </mxCell>
        <mxCell id="ltMUggmxXTka8N3pyUDg-87" value="&lt;div&gt;+createConverter(ConvertType: ConverterType) : IAudioConverter&lt;/div&gt;&lt;div&gt;&lt;br&gt;&lt;/div&gt;" style="text;strokeColor=none;fillColor=none;align=left;verticalAlign=top;spacingLeft=4;spacingRight=4;overflow=hidden;rotatable=0;points=[[0,0.5],[1,0.5]];portConstraint=eastwest;whiteSpace=wrap;html=1;" vertex="1" parent="ltMUggmxXTka8N3pyUDg-84">
          <mxGeometry y="34" width="600" height="26" as="geometry" />
        </mxCell>
        <mxCell id="ltMUggmxXTka8N3pyUDg-88" value="Create" style="endArrow=open;endSize=12;dashed=1;html=1;rounded=0;" edge="1" parent="1" source="ltMUggmxXTka8N3pyUDg-84" target="ltMUggmxXTka8N3pyUDg-20">
          <mxGeometry width="160" relative="1" as="geometry">
            <mxPoint x="-20" y="1784" as="sourcePoint" />
            <mxPoint x="-350" y="1927" as="targetPoint" />
          </mxGeometry>
        </mxCell>
        <mxCell id="ltMUggmxXTka8N3pyUDg-89" value="ConverterType" style="swimlane;fontStyle=1;align=center;verticalAlign=top;childLayout=stackLayout;horizontal=1;startSize=26;horizontalStack=0;resizeParent=1;resizeParentMax=0;resizeLast=0;collapsible=1;marginBottom=0;whiteSpace=wrap;html=1;" vertex="1" parent="1">
          <mxGeometry x="630" y="1750" width="120" height="86" as="geometry" />
        </mxCell>
        <mxCell id="ltMUggmxXTka8N3pyUDg-90" value="" style="line;strokeWidth=1;fillColor=none;align=left;verticalAlign=middle;spacingTop=-1;spacingLeft=3;spacingRight=3;rotatable=0;labelPosition=right;points=[];portConstraint=eastwest;strokeColor=inherit;" vertex="1" parent="ltMUggmxXTka8N3pyUDg-89">
          <mxGeometry y="26" width="120" height="8" as="geometry" />
        </mxCell>
        <mxCell id="ltMUggmxXTka8N3pyUDg-91" value="LIb1" style="text;strokeColor=none;fillColor=none;align=left;verticalAlign=top;spacingLeft=4;spacingRight=4;overflow=hidden;rotatable=0;points=[[0,0.5],[1,0.5]];portConstraint=eastwest;whiteSpace=wrap;html=1;" vertex="1" parent="ltMUggmxXTka8N3pyUDg-89">
          <mxGeometry y="34" width="120" height="26" as="geometry" />
        </mxCell>
        <mxCell id="ltMUggmxXTka8N3pyUDg-92" value="Lib2" style="text;strokeColor=none;fillColor=none;align=left;verticalAlign=top;spacingLeft=4;spacingRight=4;overflow=hidden;rotatable=0;points=[[0,0.5],[1,0.5]];portConstraint=eastwest;whiteSpace=wrap;html=1;" vertex="1" parent="ltMUggmxXTka8N3pyUDg-89">
          <mxGeometry y="60" width="120" height="26" as="geometry" />
        </mxCell>
        <mxCell id="ltMUggmxXTka8N3pyUDg-93" value="Use" style="endArrow=open;endSize=12;dashed=1;html=1;rounded=0;" edge="1" parent="1" source="ltMUggmxXTka8N3pyUDg-84" target="ltMUggmxXTka8N3pyUDg-89">
          <mxGeometry width="160" relative="1" as="geometry">
            <mxPoint x="520" y="1810" as="sourcePoint" />
            <mxPoint x="-350" y="1927" as="targetPoint" />
          </mxGeometry>
        </mxCell>
        <mxCell id="ltMUggmxXTka8N3pyUDg-94" value="&lt;i&gt;&amp;lt;&amp;lt;interface&amp;gt;&amp;gt;&lt;br&gt;ProgressObservable&lt;/i&gt;" style="swimlane;fontStyle=1;align=center;verticalAlign=top;childLayout=stackLayout;horizontal=1;startSize=40;horizontalStack=0;resizeParent=1;resizeParentMax=0;resizeLast=0;collapsible=1;marginBottom=0;whiteSpace=wrap;html=1;" vertex="1" parent="1">
          <mxGeometry x="-300" y="2140" width="610" height="126" as="geometry" />
        </mxCell>
        <mxCell id="ltMUggmxXTka8N3pyUDg-95" value="" style="line;strokeWidth=1;fillColor=none;align=left;verticalAlign=middle;spacingTop=-1;spacingLeft=3;spacingRight=3;rotatable=0;labelPosition=right;points=[];portConstraint=eastwest;strokeColor=inherit;" vertex="1" parent="ltMUggmxXTka8N3pyUDg-94">
          <mxGeometry y="40" width="610" height="8" as="geometry" />
        </mxCell>
        <mxCell id="ltMUggmxXTka8N3pyUDg-96" value="&lt;div&gt;&lt;div&gt;+addObserver(observer: ProgressObserver)&lt;/div&gt;&lt;/div&gt;&lt;div&gt;&lt;br&gt;&lt;/div&gt;" style="text;strokeColor=none;fillColor=none;align=left;verticalAlign=top;spacingLeft=4;spacingRight=4;overflow=hidden;rotatable=0;points=[[0,0.5],[1,0.5]];portConstraint=eastwest;whiteSpace=wrap;html=1;" vertex="1" parent="ltMUggmxXTka8N3pyUDg-94">
          <mxGeometry y="48" width="610" height="26" as="geometry" />
        </mxCell>
        <mxCell id="ltMUggmxXTka8N3pyUDg-98" value="&lt;div&gt;&lt;div&gt;&lt;div&gt;+removeObserver(observer: ProgressObserver)&lt;/div&gt;&lt;/div&gt;&lt;/div&gt;&lt;div&gt;&lt;br&gt;&lt;/div&gt;" style="text;strokeColor=none;fillColor=none;align=left;verticalAlign=top;spacingLeft=4;spacingRight=4;overflow=hidden;rotatable=0;points=[[0,0.5],[1,0.5]];portConstraint=eastwest;whiteSpace=wrap;html=1;" vertex="1" parent="ltMUggmxXTka8N3pyUDg-94">
          <mxGeometry y="74" width="610" height="26" as="geometry" />
        </mxCell>
        <mxCell id="ltMUggmxXTka8N3pyUDg-99" value="&lt;div&gt;&lt;div&gt;+notifyObservers(progress: int)&lt;/div&gt;&lt;/div&gt;" style="text;strokeColor=none;fillColor=none;align=left;verticalAlign=top;spacingLeft=4;spacingRight=4;overflow=hidden;rotatable=0;points=[[0,0.5],[1,0.5]];portConstraint=eastwest;whiteSpace=wrap;html=1;" vertex="1" parent="ltMUggmxXTka8N3pyUDg-94">
          <mxGeometry y="100" width="610" height="26" as="geometry" />
        </mxCell>
        <mxCell id="ltMUggmxXTka8N3pyUDg-97" value="" style="endArrow=block;dashed=1;endFill=0;endSize=12;html=1;rounded=0;" edge="1" parent="1" source="ltMUggmxXTka8N3pyUDg-14" target="ltMUggmxXTka8N3pyUDg-94">
          <mxGeometry width="160" relative="1" as="geometry">
            <mxPoint x="65" y="1926" as="sourcePoint" />
            <mxPoint x="65" y="1784" as="targetPoint" />
          </mxGeometry>
        </mxCell>
        <mxCell id="ltMUggmxXTka8N3pyUDg-100" value="IConvertLib&amp;nbsp;" style="swimlane;fontStyle=1;align=center;verticalAlign=top;childLayout=stackLayout;horizontal=1;startSize=26;horizontalStack=0;resizeParent=1;resizeParentMax=0;resizeLast=0;collapsible=1;marginBottom=0;whiteSpace=wrap;html=1;" vertex="1" parent="1">
          <mxGeometry x="414" y="2173" width="600" height="60" as="geometry" />
        </mxCell>
        <mxCell id="ltMUggmxXTka8N3pyUDg-102" value="" style="line;strokeWidth=1;fillColor=none;align=left;verticalAlign=middle;spacingTop=-1;spacingLeft=3;spacingRight=3;rotatable=0;labelPosition=right;points=[];portConstraint=eastwest;strokeColor=inherit;" vertex="1" parent="ltMUggmxXTka8N3pyUDg-100">
          <mxGeometry y="26" width="600" height="8" as="geometry" />
        </mxCell>
        <mxCell id="ltMUggmxXTka8N3pyUDg-103" value="&lt;div&gt;+encode(input: string, output: string, audioFormat: CodecOptions, progressObservable: ProgressObservable)&lt;/div&gt;&lt;div&gt;&lt;br&gt;&lt;/div&gt;" style="text;strokeColor=none;fillColor=none;align=left;verticalAlign=top;spacingLeft=4;spacingRight=4;overflow=hidden;rotatable=0;points=[[0,0.5],[1,0.5]];portConstraint=eastwest;whiteSpace=wrap;html=1;" vertex="1" parent="ltMUggmxXTka8N3pyUDg-100">
          <mxGeometry y="34" width="600" height="26" as="geometry" />
        </mxCell>
        <mxCell id="ltMUggmxXTka8N3pyUDg-105" value="" style="endArrow=diamondThin;endFill=0;endSize=24;html=1;rounded=0;" edge="1" parent="1" source="ltMUggmxXTka8N3pyUDg-100" target="ltMUggmxXTka8N3pyUDg-14">
          <mxGeometry width="160" relative="1" as="geometry">
            <mxPoint x="340" y="2150" as="sourcePoint" />
            <mxPoint x="500" y="2150" as="targetPoint" />
          </mxGeometry>
        </mxCell>
        <mxCell id="ltMUggmxXTka8N3pyUDg-106" value="&lt;i&gt;&lt;div&gt;«interface»&lt;/div&gt;&lt;div&gt;ProgressObserver&lt;/div&gt;&lt;/i&gt;" style="swimlane;fontStyle=1;align=center;verticalAlign=top;childLayout=stackLayout;horizontal=1;startSize=40;horizontalStack=0;resizeParent=1;resizeParentMax=0;resizeLast=0;collapsible=1;marginBottom=0;whiteSpace=wrap;html=1;" vertex="1" parent="1">
          <mxGeometry x="1130" y="1986" width="270" height="74" as="geometry" />
        </mxCell>
        <mxCell id="ltMUggmxXTka8N3pyUDg-107" value="" style="line;strokeWidth=1;fillColor=none;align=left;verticalAlign=middle;spacingTop=-1;spacingLeft=3;spacingRight=3;rotatable=0;labelPosition=right;points=[];portConstraint=eastwest;strokeColor=inherit;" vertex="1" parent="ltMUggmxXTka8N3pyUDg-106">
          <mxGeometry y="40" width="270" height="8" as="geometry" />
        </mxCell>
        <mxCell id="ltMUggmxXTka8N3pyUDg-108" value="&lt;div&gt;&lt;div&gt;&lt;div&gt;+update(progress: int)&lt;/div&gt;&lt;/div&gt;&lt;/div&gt;&lt;div&gt;&lt;br&gt;&lt;/div&gt;" style="text;strokeColor=none;fillColor=none;align=left;verticalAlign=top;spacingLeft=4;spacingRight=4;overflow=hidden;rotatable=0;points=[[0,0.5],[1,0.5]];portConstraint=eastwest;whiteSpace=wrap;html=1;" vertex="1" parent="ltMUggmxXTka8N3pyUDg-106">
          <mxGeometry y="48" width="270" height="26" as="geometry" />
        </mxCell>
        <mxCell id="ltMUggmxXTka8N3pyUDg-111" value="" style="endArrow=block;dashed=1;endFill=0;endSize=12;html=1;rounded=0;" edge="1" parent="1" source="ltMUggmxXTka8N3pyUDg-112" target="ltMUggmxXTka8N3pyUDg-106">
          <mxGeometry width="160" relative="1" as="geometry">
            <mxPoint x="1280" y="2210" as="sourcePoint" />
            <mxPoint x="65" y="2150" as="targetPoint" />
          </mxGeometry>
        </mxCell>
        <mxCell id="ltMUggmxXTka8N3pyUDg-112" value="ProgressBar" style="swimlane;fontStyle=1;align=center;verticalAlign=top;childLayout=stackLayout;horizontal=1;startSize=26;horizontalStack=0;resizeParent=1;resizeParentMax=0;resizeLast=0;collapsible=1;marginBottom=0;whiteSpace=wrap;html=1;" vertex="1" parent="1">
          <mxGeometry x="1155" y="2134" width="220" height="138" as="geometry" />
        </mxCell>
        <mxCell id="ltMUggmxXTka8N3pyUDg-113" value="&lt;div&gt;&lt;div&gt;- progress: int&lt;/div&gt;&lt;/div&gt;&lt;div&gt;&lt;br&gt;&lt;/div&gt;" style="text;strokeColor=none;fillColor=none;align=left;verticalAlign=top;spacingLeft=4;spacingRight=4;overflow=hidden;rotatable=0;points=[[0,0.5],[1,0.5]];portConstraint=eastwest;whiteSpace=wrap;html=1;" vertex="1" parent="ltMUggmxXTka8N3pyUDg-112">
          <mxGeometry y="26" width="220" height="26" as="geometry" />
        </mxCell>
        <mxCell id="ltMUggmxXTka8N3pyUDg-114" value="" style="line;strokeWidth=1;fillColor=none;align=left;verticalAlign=middle;spacingTop=-1;spacingLeft=3;spacingRight=3;rotatable=0;labelPosition=right;points=[];portConstraint=eastwest;strokeColor=inherit;" vertex="1" parent="ltMUggmxXTka8N3pyUDg-112">
          <mxGeometry y="52" width="220" height="8" as="geometry" />
        </mxCell>
        <mxCell id="ltMUggmxXTka8N3pyUDg-115" value="&lt;div&gt;+update(progress: int)&lt;/div&gt;&lt;div&gt;&lt;br&gt;&lt;/div&gt;" style="text;strokeColor=none;fillColor=none;align=left;verticalAlign=top;spacingLeft=4;spacingRight=4;overflow=hidden;rotatable=0;points=[[0,0.5],[1,0.5]];portConstraint=eastwest;whiteSpace=wrap;html=1;" vertex="1" parent="ltMUggmxXTka8N3pyUDg-112">
          <mxGeometry y="60" width="220" height="26" as="geometry" />
        </mxCell>
        <mxCell id="ltMUggmxXTka8N3pyUDg-116" value="&lt;div&gt;&lt;div&gt;+show()&lt;/div&gt;&lt;/div&gt;&lt;div&gt;&lt;br&gt;&lt;/div&gt;" style="text;strokeColor=none;fillColor=none;align=left;verticalAlign=top;spacingLeft=4;spacingRight=4;overflow=hidden;rotatable=0;points=[[0,0.5],[1,0.5]];portConstraint=eastwest;whiteSpace=wrap;html=1;" vertex="1" parent="ltMUggmxXTka8N3pyUDg-112">
          <mxGeometry y="86" width="220" height="26" as="geometry" />
        </mxCell>
        <mxCell id="ltMUggmxXTka8N3pyUDg-117" value="&lt;div&gt;&lt;div&gt;+hide()&lt;/div&gt;&lt;/div&gt;&lt;div&gt;&lt;br&gt;&lt;/div&gt;" style="text;strokeColor=none;fillColor=none;align=left;verticalAlign=top;spacingLeft=4;spacingRight=4;overflow=hidden;rotatable=0;points=[[0,0.5],[1,0.5]];portConstraint=eastwest;whiteSpace=wrap;html=1;" vertex="1" parent="ltMUggmxXTka8N3pyUDg-112">
          <mxGeometry y="112" width="220" height="26" as="geometry" />
        </mxCell>
        <mxCell id="ltMUggmxXTka8N3pyUDg-118" value="Observe" style="endArrow=open;endSize=12;dashed=1;html=1;rounded=0;" edge="1" parent="1" source="ltMUggmxXTka8N3pyUDg-94" target="ltMUggmxXTka8N3pyUDg-106">
          <mxGeometry width="160" relative="1" as="geometry">
            <mxPoint x="290" y="2050" as="sourcePoint" />
            <mxPoint x="450" y="2050" as="targetPoint" />
          </mxGeometry>
        </mxCell>
        <mxCell id="ltMUggmxXTka8N3pyUDg-119" value="&lt;div&gt;LibAdapter&lt;/div&gt;&lt;div&gt;&lt;br&gt;&lt;/div&gt;" style="swimlane;fontStyle=1;align=center;verticalAlign=top;childLayout=stackLayout;horizontal=1;startSize=26;horizontalStack=0;resizeParent=1;resizeParentMax=0;resizeLast=0;collapsible=1;marginBottom=0;whiteSpace=wrap;html=1;" vertex="1" parent="1">
          <mxGeometry x="120" y="2370" width="600" height="86" as="geometry" />
        </mxCell>
        <mxCell id="ltMUggmxXTka8N3pyUDg-133" value="&lt;div&gt;- lib: Lib&lt;/div&gt;" style="text;strokeColor=none;fillColor=none;align=left;verticalAlign=top;spacingLeft=4;spacingRight=4;overflow=hidden;rotatable=0;points=[[0,0.5],[1,0.5]];portConstraint=eastwest;whiteSpace=wrap;html=1;" vertex="1" parent="ltMUggmxXTka8N3pyUDg-119">
          <mxGeometry y="26" width="600" height="26" as="geometry" />
        </mxCell>
        <mxCell id="ltMUggmxXTka8N3pyUDg-120" value="" style="line;strokeWidth=1;fillColor=none;align=left;verticalAlign=middle;spacingTop=-1;spacingLeft=3;spacingRight=3;rotatable=0;labelPosition=right;points=[];portConstraint=eastwest;strokeColor=inherit;" vertex="1" parent="ltMUggmxXTka8N3pyUDg-119">
          <mxGeometry y="52" width="600" height="8" as="geometry" />
        </mxCell>
        <mxCell id="ltMUggmxXTka8N3pyUDg-121" value="&lt;div&gt;+encode(input: string, output: string, audioFormat: CodecOptions, progressObservable: ProgressObservable)&lt;/div&gt;&lt;div&gt;&lt;br&gt;&lt;/div&gt;" style="text;strokeColor=none;fillColor=none;align=left;verticalAlign=top;spacingLeft=4;spacingRight=4;overflow=hidden;rotatable=0;points=[[0,0.5],[1,0.5]];portConstraint=eastwest;whiteSpace=wrap;html=1;" vertex="1" parent="ltMUggmxXTka8N3pyUDg-119">
          <mxGeometry y="60" width="600" height="26" as="geometry" />
        </mxCell>
        <mxCell id="ltMUggmxXTka8N3pyUDg-125" value="LIb" style="swimlane;fontStyle=1;align=center;verticalAlign=top;childLayout=stackLayout;horizontal=1;startSize=26;horizontalStack=0;resizeParent=1;resizeParentMax=0;resizeLast=0;collapsible=1;marginBottom=0;whiteSpace=wrap;html=1;" vertex="1" parent="1">
          <mxGeometry x="210" y="2530" width="420" height="60" as="geometry" />
        </mxCell>
        <mxCell id="ltMUggmxXTka8N3pyUDg-126" value="" style="line;strokeWidth=1;fillColor=none;align=left;verticalAlign=middle;spacingTop=-1;spacingLeft=3;spacingRight=3;rotatable=0;labelPosition=right;points=[];portConstraint=eastwest;strokeColor=inherit;" vertex="1" parent="ltMUggmxXTka8N3pyUDg-125">
          <mxGeometry y="26" width="420" height="8" as="geometry" />
        </mxCell>
        <mxCell id="ltMUggmxXTka8N3pyUDg-127" value="..." style="text;strokeColor=none;fillColor=none;align=left;verticalAlign=top;spacingLeft=4;spacingRight=4;overflow=hidden;rotatable=0;points=[[0,0.5],[1,0.5]];portConstraint=eastwest;whiteSpace=wrap;html=1;" vertex="1" parent="ltMUggmxXTka8N3pyUDg-125">
          <mxGeometry y="34" width="420" height="26" as="geometry" />
        </mxCell>
        <mxCell id="ltMUggmxXTka8N3pyUDg-131" value="" style="endArrow=block;dashed=1;endFill=0;endSize=12;html=1;rounded=0;" edge="1" parent="1" source="ltMUggmxXTka8N3pyUDg-119" target="ltMUggmxXTka8N3pyUDg-100">
          <mxGeometry width="160" relative="1" as="geometry">
            <mxPoint x="56" y="2012" as="sourcePoint" />
            <mxPoint x="28" y="2150" as="targetPoint" />
          </mxGeometry>
        </mxCell>
        <mxCell id="ltMUggmxXTka8N3pyUDg-134" value="" style="endArrow=diamondThin;endFill=0;endSize=24;html=1;rounded=0;" edge="1" parent="1" source="ltMUggmxXTka8N3pyUDg-125" target="ltMUggmxXTka8N3pyUDg-119">
          <mxGeometry width="160" relative="1" as="geometry">
            <mxPoint x="643" y="2183" as="sourcePoint" />
            <mxPoint x="181" y="2012" as="targetPoint" />
          </mxGeometry>
        </mxCell>
        <mxCell id="ltMUggmxXTka8N3pyUDg-135" value="&lt;div&gt;LibAdapter&lt;/div&gt;&lt;div&gt;&lt;br&gt;&lt;/div&gt;" style="swimlane;fontStyle=1;align=center;verticalAlign=top;childLayout=stackLayout;horizontal=1;startSize=26;horizontalStack=0;resizeParent=1;resizeParentMax=0;resizeLast=0;collapsible=1;marginBottom=0;whiteSpace=wrap;html=1;" vertex="1" parent="1">
          <mxGeometry x="770" y="2370" width="600" height="86" as="geometry" />
        </mxCell>
        <mxCell id="ltMUggmxXTka8N3pyUDg-136" value="&lt;div&gt;- lib: Lib&lt;/div&gt;" style="text;strokeColor=none;fillColor=none;align=left;verticalAlign=top;spacingLeft=4;spacingRight=4;overflow=hidden;rotatable=0;points=[[0,0.5],[1,0.5]];portConstraint=eastwest;whiteSpace=wrap;html=1;" vertex="1" parent="ltMUggmxXTka8N3pyUDg-135">
          <mxGeometry y="26" width="600" height="26" as="geometry" />
        </mxCell>
        <mxCell id="ltMUggmxXTka8N3pyUDg-137" value="" style="line;strokeWidth=1;fillColor=none;align=left;verticalAlign=middle;spacingTop=-1;spacingLeft=3;spacingRight=3;rotatable=0;labelPosition=right;points=[];portConstraint=eastwest;strokeColor=inherit;" vertex="1" parent="ltMUggmxXTka8N3pyUDg-135">
          <mxGeometry y="52" width="600" height="8" as="geometry" />
        </mxCell>
        <mxCell id="ltMUggmxXTka8N3pyUDg-138" value="&lt;div&gt;+encode(input: string, output: string, audioFormat: CodecOptions, progressObservable: ProgressObservable)&lt;/div&gt;&lt;div&gt;&lt;br&gt;&lt;/div&gt;" style="text;strokeColor=none;fillColor=none;align=left;verticalAlign=top;spacingLeft=4;spacingRight=4;overflow=hidden;rotatable=0;points=[[0,0.5],[1,0.5]];portConstraint=eastwest;whiteSpace=wrap;html=1;" vertex="1" parent="ltMUggmxXTka8N3pyUDg-135">
          <mxGeometry y="60" width="600" height="26" as="geometry" />
        </mxCell>
        <mxCell id="ltMUggmxXTka8N3pyUDg-139" value="LIb" style="swimlane;fontStyle=1;align=center;verticalAlign=top;childLayout=stackLayout;horizontal=1;startSize=26;horizontalStack=0;resizeParent=1;resizeParentMax=0;resizeLast=0;collapsible=1;marginBottom=0;whiteSpace=wrap;html=1;" vertex="1" parent="1">
          <mxGeometry x="860" y="2530" width="420" height="60" as="geometry" />
        </mxCell>
        <mxCell id="ltMUggmxXTka8N3pyUDg-140" value="" style="line;strokeWidth=1;fillColor=none;align=left;verticalAlign=middle;spacingTop=-1;spacingLeft=3;spacingRight=3;rotatable=0;labelPosition=right;points=[];portConstraint=eastwest;strokeColor=inherit;" vertex="1" parent="ltMUggmxXTka8N3pyUDg-139">
          <mxGeometry y="26" width="420" height="8" as="geometry" />
        </mxCell>
        <mxCell id="ltMUggmxXTka8N3pyUDg-141" value="..." style="text;strokeColor=none;fillColor=none;align=left;verticalAlign=top;spacingLeft=4;spacingRight=4;overflow=hidden;rotatable=0;points=[[0,0.5],[1,0.5]];portConstraint=eastwest;whiteSpace=wrap;html=1;" vertex="1" parent="ltMUggmxXTka8N3pyUDg-139">
          <mxGeometry y="34" width="420" height="26" as="geometry" />
        </mxCell>
        <mxCell id="ltMUggmxXTka8N3pyUDg-142" value="" style="endArrow=block;dashed=1;endFill=0;endSize=12;html=1;rounded=0;" edge="1" parent="1" source="ltMUggmxXTka8N3pyUDg-135" target="ltMUggmxXTka8N3pyUDg-100">
          <mxGeometry width="160" relative="1" as="geometry">
            <mxPoint x="236" y="2309" as="sourcePoint" />
            <mxPoint x="848" y="2530" as="targetPoint" />
          </mxGeometry>
        </mxCell>
        <mxCell id="ltMUggmxXTka8N3pyUDg-143" value="" style="endArrow=diamondThin;endFill=0;endSize=24;html=1;rounded=0;" edge="1" parent="1" source="ltMUggmxXTka8N3pyUDg-139" target="ltMUggmxXTka8N3pyUDg-135">
          <mxGeometry width="160" relative="1" as="geometry">
            <mxPoint x="823" y="2480" as="sourcePoint" />
            <mxPoint x="361" y="2309" as="targetPoint" />
          </mxGeometry>
        </mxCell>
        <mxCell id="ltMUggmxXTka8N3pyUDg-144" value="ConverterType" style="swimlane;fontStyle=1;align=center;verticalAlign=top;childLayout=stackLayout;horizontal=1;startSize=26;horizontalStack=0;resizeParent=1;resizeParentMax=0;resizeLast=0;collapsible=1;marginBottom=0;whiteSpace=wrap;html=1;" vertex="1" parent="1">
          <mxGeometry x="540" y="2002" width="120" height="86" as="geometry" />
        </mxCell>
        <mxCell id="ltMUggmxXTka8N3pyUDg-145" value="" style="line;strokeWidth=1;fillColor=none;align=left;verticalAlign=middle;spacingTop=-1;spacingLeft=3;spacingRight=3;rotatable=0;labelPosition=right;points=[];portConstraint=eastwest;strokeColor=inherit;" vertex="1" parent="ltMUggmxXTka8N3pyUDg-144">
          <mxGeometry y="26" width="120" height="8" as="geometry" />
        </mxCell>
        <mxCell id="ltMUggmxXTka8N3pyUDg-146" value="&lt;div&gt;+ format: string&lt;/div&gt;&lt;div&gt;&lt;br&gt;&lt;/div&gt;" style="text;strokeColor=none;fillColor=none;align=left;verticalAlign=top;spacingLeft=4;spacingRight=4;overflow=hidden;rotatable=0;points=[[0,0.5],[1,0.5]];portConstraint=eastwest;whiteSpace=wrap;html=1;" vertex="1" parent="ltMUggmxXTka8N3pyUDg-144">
          <mxGeometry y="34" width="120" height="26" as="geometry" />
        </mxCell>
        <mxCell id="ltMUggmxXTka8N3pyUDg-147" value="&lt;div&gt;+ channels: int&lt;/div&gt;&lt;div&gt;&lt;br&gt;&lt;/div&gt;" style="text;strokeColor=none;fillColor=none;align=left;verticalAlign=top;spacingLeft=4;spacingRight=4;overflow=hidden;rotatable=0;points=[[0,0.5],[1,0.5]];portConstraint=eastwest;whiteSpace=wrap;html=1;" vertex="1" parent="ltMUggmxXTka8N3pyUDg-144">
          <mxGeometry y="60" width="120" height="26" as="geometry" />
        </mxCell>
        <mxCell id="ltMUggmxXTka8N3pyUDg-148" value="Use" style="endArrow=open;endSize=12;dashed=1;html=1;rounded=0;" edge="1" parent="1" source="ltMUggmxXTka8N3pyUDg-100" target="ltMUggmxXTka8N3pyUDg-144">
          <mxGeometry width="160" relative="1" as="geometry">
            <mxPoint x="700" y="1926" as="sourcePoint" />
            <mxPoint x="700" y="1846" as="targetPoint" />
          </mxGeometry>
        </mxCell>
      </root>
    </mxGraphModel>
  </diagram>
</mxfile>
